<svg width="256" height="256" viewBox="0 0 256 256" fill="none" xmlns="http://www.w3.org/2000/svg">
<g filter="url(#filter0_f_5441_67536)">
<path d="M40.3177 215.682C29.3485 204.713 36.6215 181.666 31.0415 168.169C25.2469 154.231 4 142.904 4 128C4 113.096 25.2469 101.769 31.0415 87.8312C36.6215 74.3462 29.3485 51.2869 40.3177 40.3177C51.2869 29.3485 74.3462 36.6215 87.8312 31.0415C101.829 25.2469 109.09 4 128 4C146.91 4 154.231 25.2469 168.169 31.0415C181.666 36.6215 202.314 26.9495 215.682 40.3177C229.051 53.6859 219.378 74.3342 224.958 87.8312C230.753 101.829 252 113.096 252 128C252 142.904 230.753 154.231 224.958 168.169C219.378 181.666 226.652 204.713 215.682 215.682C204.713 226.652 181.666 219.378 168.169 224.958C154.231 230.753 142.904 252 128 252C113.096 252 101.769 230.753 87.8312 224.958C74.3462 219.378 51.2869 226.652 40.3177 215.682Z" fill="#F37998"/>
</g>
<defs>
<filter id="filter0_f_5441_67536" x="0" y="0" width="256" height="256" filterUnits="userSpaceOnUse" color-interpolation-filters="sRGB">
<feFlood flood-opacity="0" result="BackgroundImageFix"/>
<feBlend mode="normal" in="SourceGraphic" in2="BackgroundImageFix" result="shape"/>
<feGaussianBlur stdDeviation="2" result="effect1_foregroundBlur_5441_67536"/>
</filter>
</defs>
</svg>
