<svg width="24" height="24" viewBox="0 0 24 24" fill="none" xmlns="http://www.w3.org/2000/svg">
<g clip-path="url(#clip0_4685_3359)">
<circle cx="12" cy="12" r="12" fill="#D3D6F2"/>
<path d="M19.3198 16.0674C18.9902 15.2895 18.5593 14.5807 18.1768 13.9523C18.0457 13.7386 17.9172 13.5235 17.7913 13.3068H6.2089C6.08296 13.5235 5.95446 13.7386 5.82342 13.9523C5.44091 14.5807 5.01003 15.2895 4.68036 16.0674C4.22413 17.1337 3.99259 18.2825 4.00018 19.4422C4.00018 19.5902 4.05898 19.732 4.16365 19.8366C4.26832 19.9412 4.41029 20 4.55831 20C4.70634 20 4.8483 19.9412 4.95297 19.8366C5.05764 19.732 5.11645 19.5902 5.11645 19.4422C5.11645 18.3341 5.33226 17.438 5.64407 16.6578C9.65816 16.7672 11.1956 18.793 11.471 19.6185C11.5082 19.7293 11.5793 19.8256 11.6742 19.8938C11.7692 19.962 11.8832 19.9987 12.0001 19.9987C12.117 19.9987 12.231 19.962 12.3259 19.8938C12.4209 19.8256 12.492 19.7293 12.5292 19.6185C12.8045 18.793 14.342 16.7672 18.3561 16.6586C18.7116 17.5433 18.8908 18.4889 18.8837 19.4422C18.8837 19.5902 18.9425 19.732 19.0472 19.8366C19.1519 19.9412 19.2938 20 19.4419 20C19.5899 20 19.7319 19.9412 19.8365 19.8366C19.9412 19.732 20 19.5902 20 19.4422C20 18.0924 19.7172 17.0029 19.3198 16.0674ZM6.56015 4.34974C6.50203 4.21364 6.39218 4.1062 6.25479 4.05104C6.11739 3.99588 5.96369 3.99752 5.82751 4.05561C5.69132 4.1137 5.58381 4.22347 5.52861 4.36077C5.47342 4.49808 5.47506 4.65168 5.53319 4.78777L5.53616 4.79521L5.54807 4.82198L5.59272 4.93205C5.84043 5.5564 6.06189 6.19082 6.25653 6.83367C6.62341 8.04812 6.97689 9.58087 6.97689 10.9433C6.97487 11.3696 6.89727 11.7921 6.74768 12.1912H17.2525C17.1029 11.7921 17.0253 11.3696 17.0233 10.9433C17.0233 9.58087 17.3768 8.04812 17.7437 6.83367C17.9383 6.19084 18.1598 5.55641 18.4075 4.93205L18.4521 4.82198L18.4633 4.79521L18.4662 4.78852V4.78703C18.4968 4.71934 18.5135 4.64624 18.5154 4.57201C18.5173 4.49778 18.5043 4.42392 18.4773 4.35476C18.4503 4.2856 18.4097 4.22254 18.3579 4.16926C18.3062 4.11598 18.2443 4.07357 18.1759 4.0445C18.1075 4.01544 18.034 4.00031 17.9597 4C17.8854 3.9997 17.8118 4.01422 17.7432 4.04272C17.6746 4.07122 17.6124 4.11312 17.5602 4.16597C17.508 4.21882 17.4669 4.28155 17.4393 4.35048C17.4393 4.35048 17.44 4.34974 17.9535 4.56838L17.4393 4.35048L17.4385 4.35346L17.4348 4.36238L17.4214 4.39436L17.3716 4.51558C17.1115 5.17089 16.8791 5.83683 16.675 6.51165C16.3171 7.69784 15.948 9.24695 15.91 10.7038H8.09018C8.05297 9.24621 7.68312 7.69784 7.32517 6.51165C7.12103 5.83685 6.88865 5.17091 6.62862 4.51558L6.57876 4.39436L6.56536 4.36238L6.56164 4.35346L6.5609 4.35123L6.56015 4.34974Z" fill="#8882D2"/>
<circle cx="12.1607" cy="15.1607" r="2.66069" fill="white" stroke="#D52961"/>
<circle cx="12.1607" cy="15.1607" r="1.75594" fill="#F37998"/>
</g>
<defs>
<clipPath id="clip0_4685_3359">
<rect width="24" height="24" fill="white"/>
</clipPath>
</defs>
</svg>
