<svg width="10" height="10" viewBox="0 0 10 10" fill="none" xmlns="http://www.w3.org/2000/svg">
<circle cx="5" cy="5" r="5" fill="#34C759"/>
<path fill-rule="evenodd" clip-rule="evenodd" d="M7.86817 3.12322C7.95258 3.20206 8 3.30897 8 3.42044C8 3.53191 7.95258 3.63882 7.86817 3.71766L4.49344 6.86863C4.44884 6.91028 4.39589 6.94331 4.33762 6.96586C4.27934 6.9884 4.21688 7 4.1538 7C4.09072 7 4.02826 6.9884 3.96999 6.96586C3.91171 6.94331 3.85877 6.91028 3.81417 6.86863L2.13745 5.30337C2.09445 5.26459 2.06015 5.2182 2.03655 5.16691C2.01296 5.11562 2.00054 5.06046 2.00002 5.00464C1.9995 4.94882 2.01089 4.89347 2.03353 4.8418C2.05617 4.79014 2.0896 4.7432 2.13187 4.70373C2.17415 4.66426 2.22442 4.63304 2.27975 4.6119C2.33509 4.59077 2.39437 4.58013 2.45416 4.58061C2.51394 4.5811 2.57302 4.5927 2.62795 4.61473C2.68289 4.63676 2.73257 4.66879 2.7741 4.70894L4.15365 5.99702L7.23123 3.12322C7.27304 3.08416 7.32269 3.05317 7.37733 3.03203C7.43198 3.01088 7.49055 3 7.5497 3C7.60885 3 7.66742 3.01088 7.72207 3.03203C7.77671 3.05317 7.82636 3.08416 7.86817 3.12322Z" fill="white"/>
</svg>
