<svg width="24" height="24" viewBox="0 0 24 24" fill="none" xmlns="http://www.w3.org/2000/svg">
<path d="M12.1094 3.72499C11.9394 3.57963 11.723 3.49983 11.4994 3.5C11.2757 3.50017 11.0595 3.58031 10.8897 3.72593L10.8063 3.79812C10.4702 4.09743 10.1411 4.40438 9.81906 4.71874C9.00002 5.51738 8.22422 6.35921 7.495 7.24062C6.64938 8.26624 5.78594 9.46531 5.13062 10.73C4.47906 11.9862 4 13.37 4 14.75C4 16.7391 4.79018 18.6468 6.1967 20.0533C7.60322 21.4598 9.51088 22.25 11.5 22.25C13.4891 22.25 15.3968 21.4598 16.8033 20.0533C18.2098 18.6468 19 16.7391 19 14.75C19 13.37 18.5209 11.9862 17.8694 10.73C17.2131 9.46437 16.3506 8.26624 15.505 7.23968C14.5509 6.08708 13.5175 5.00257 12.4122 3.99406L12.1103 3.72593L12.1094 3.72499ZM5.875 14.75C5.875 13.7862 6.21625 12.7091 6.79469 11.5925C7.37031 10.4844 8.1475 9.39781 8.94156 8.43218C9.73723 7.47056 10.5917 6.55913 11.5 5.70312C12.4079 6.55856 13.2621 7.46936 14.0575 8.43031C14.8525 9.39593 15.6297 10.4834 16.2044 11.5916C16.7837 12.7081 17.125 13.7853 17.125 14.7491C17.125 16.2409 16.5324 17.6716 15.4775 18.7265C14.4226 19.7814 12.9918 20.3741 11.5 20.3741C10.0082 20.3741 8.57742 19.7814 7.52252 18.7265C6.46763 17.6716 5.875 16.2409 5.875 14.7491V14.75Z" fill="#B31D51"/>
<path d="M8.0874 14.7895C7.8491 14.8603 7.64866 15.0228 7.53017 15.2413C7.41168 15.4599 7.38483 15.7165 7.45552 15.9548C7.65619 16.6265 8.02081 17.2378 8.51652 17.7335C9.01224 18.2292 9.62349 18.5938 10.2952 18.7945C10.4135 18.8306 10.5378 18.843 10.6609 18.8308C10.784 18.8187 10.9034 18.7823 11.0124 18.7238C11.1214 18.6653 11.2177 18.5858 11.2958 18.4899C11.3739 18.394 11.4323 18.2836 11.4675 18.1651C11.5028 18.0465 11.5142 17.9221 11.5012 17.7991C11.4882 17.6761 11.4509 17.5569 11.3916 17.4484C11.3323 17.3398 11.2522 17.2441 11.1557 17.1667C11.0592 17.0893 10.9484 17.0317 10.8296 16.9973C10.4568 16.8855 10.1175 16.683 9.84231 16.4077C9.56709 16.1325 9.3645 15.7933 9.25271 15.4205C9.18174 15.1823 9.01913 14.9821 8.80063 14.8638C8.58212 14.7455 8.32559 14.7188 8.0874 14.7895Z" fill="#B31D51"/>
</svg>
