<svg width="80" height="80" viewBox="0 0 80 80" fill="none" xmlns="http://www.w3.org/2000/svg">
<g clip-path="url(#clip0_5409_61424)">
<path d="M50.4707 29.7394C50.4707 34.6894 50.4807 39.6394 50.4607 44.5894C50.4607 45.2294 50.7007 45.6394 51.2107 46.0394C54.8107 48.8394 56.8907 52.4094 57.4507 56.7494C58.2807 63.2294 54.6907 69.6994 48.0807 72.9594C41.8307 76.0394 33.6107 75.0794 28.3307 70.6494C24.2807 67.2494 22.2607 63.0094 22.4407 57.9694C22.6107 53.1494 24.7707 49.1494 28.7707 46.0494C29.3207 45.6194 29.5307 45.1794 29.5307 44.5294C29.5107 34.7694 29.5207 25.0094 29.5207 15.2494C29.5207 12.4894 30.4807 10.0994 32.5507 8.06938C36.4007 4.28938 43.5707 4.28938 47.4307 8.06938C49.5107 10.0994 50.4607 12.4894 50.4707 15.2494C50.4707 15.2994 50.4707 15.3494 50.4707 15.3894C50.4707 20.1694 50.4707 24.9594 50.4707 29.7394ZM47.6607 30.2594C47.6607 25.2094 47.6607 20.1594 47.6607 15.1094C47.6607 14.6394 47.6507 14.1494 47.5707 13.6894C47.0207 10.4694 43.7407 7.44938 39.2207 7.78938C35.7007 8.05938 32.4207 11.1194 32.3307 14.3994C32.3007 15.2994 32.3307 15.3394 33.2807 15.3394C34.6107 15.3394 35.9507 15.3394 37.2807 15.3394C38.7107 15.3394 39.4207 15.7794 39.4107 16.6594C39.4007 17.5294 38.7007 17.9394 37.2507 17.9394C36.3507 17.9394 35.4507 17.9194 34.5607 17.9394C31.8807 17.9994 32.3907 17.4394 32.3207 20.1194C32.3107 20.5894 32.5307 20.7494 33.0107 20.7394C34.0407 20.7194 35.0607 20.7294 36.0907 20.7394C36.6407 20.7494 37.1007 20.9694 37.3307 21.4494C37.5507 21.9094 37.5107 22.3894 37.1807 22.8094C36.8407 23.2294 36.3207 23.2994 35.8007 23.3094C34.8507 23.3294 33.9007 23.3394 32.9507 23.3094C32.4907 23.2994 32.2907 23.4194 32.3207 23.8694C32.3507 24.3894 32.3507 24.9194 32.3207 25.4394C32.2907 25.9594 32.5007 26.1694 33.0707 26.1494C34.0207 26.1194 34.9707 26.1294 35.9207 26.1494C36.9007 26.1594 37.4407 26.6194 37.4507 27.3994C37.4507 28.1894 36.9107 28.6494 35.9507 28.6694C35.4607 28.6694 34.9707 28.6694 34.4907 28.6694C32.2507 28.6694 32.2707 28.6694 32.3207 30.7694C32.3307 31.2894 32.5207 31.4994 33.0907 31.4894C34.0107 31.4694 34.9407 31.4694 35.8607 31.4894C36.9207 31.5294 37.4707 31.9794 37.4707 32.7694C37.4707 33.5894 36.8807 34.0594 35.8207 34.0794C34.9007 34.0894 33.9707 34.0994 33.0507 34.0794C32.5107 34.0694 32.3107 34.2594 32.3307 34.7494C32.3607 35.2194 32.3607 35.6994 32.3307 36.1794C32.3007 36.6994 32.5107 36.9094 33.0907 36.8894C34.0607 36.8594 35.0407 36.8494 36.0107 36.8894C37.2307 36.9394 37.8607 37.9294 37.2807 38.8294C36.9507 39.3494 36.3907 39.4494 35.8207 39.4594C34.9007 39.4794 33.9707 39.4794 33.0507 39.4594C32.5207 39.4494 32.3007 39.6494 32.3307 40.1394C32.3507 40.5894 32.3607 41.0494 32.3307 41.4994C32.2807 42.0794 32.5007 42.2994 33.1607 42.2894C34.7207 42.2594 36.2907 42.2694 37.8607 42.2894C38.8607 42.2894 39.4607 42.7994 39.4307 43.5794C39.4107 44.3394 38.8507 44.7894 37.8607 44.7994C36.3507 44.8094 34.8307 44.8394 33.3207 44.7894C32.5307 44.7594 32.2207 44.9994 32.3407 45.7194C32.4607 46.4494 32.1507 46.9194 31.4807 47.3694C26.7807 50.5694 24.6307 54.9294 25.3407 60.2794C26.2807 67.4294 33.0807 72.3494 40.3407 72.1794C46.1107 72.0494 51.5007 68.6994 53.6907 63.7394C56.3507 57.6994 54.2307 51.0694 48.3807 47.2494C47.8507 46.8994 47.6707 46.5394 47.6707 45.9494C47.6907 40.7094 47.6807 35.4694 47.6807 30.2294L47.6607 30.2594Z" fill="#D52961"/>
<path d="M44.0007 37.8496C44.0007 41.0596 44.0207 44.2796 43.9907 47.4896C43.9907 48.1096 44.2107 48.4096 44.8207 48.6596C49.5507 50.6496 52.1907 54.9696 51.6907 59.4796C51.1407 64.5196 47.3607 68.2796 42.1407 69.1996C34.6107 70.5196 27.6207 64.7596 28.2907 57.6996C28.6907 53.5196 31.0407 50.4996 35.1207 48.6996C35.7807 48.4096 36.0507 48.0896 36.0107 47.4196C35.9607 46.4896 36.0107 46.4896 37.0507 46.4696C37.7107 46.4596 38.3907 46.5596 39.0307 46.3396C40.4207 45.8796 41.2607 44.7196 41.1907 43.3696C41.1207 42.1296 40.1007 41.0096 38.6707 40.7296C38.0707 40.6096 38.0507 40.5196 38.4407 40.1096C39.6607 38.8096 39.5007 37.0796 38.0407 35.9396C37.5807 35.5796 37.5507 35.4396 38.0307 35.0596C39.7307 33.7196 39.6907 31.7996 37.9407 30.4696C37.5407 30.1696 37.5307 30.0096 37.9407 29.7396C38.6207 29.2996 39.0607 28.6896 39.1807 27.9196C39.2507 27.4196 39.5607 27.3096 40.0307 27.3196C41.0607 27.3296 42.0807 27.3496 43.1107 27.3196C43.7807 27.2996 44.0107 27.5196 44.0007 28.1496C43.9807 31.3896 43.9907 34.6196 43.9907 37.8596L44.0007 37.8496Z" fill="#D52961"/>
</g>
<defs>
<clipPath id="clip0_5409_61424">
<rect width="80" height="80" fill="white"/>
</clipPath>
</defs>
</svg>
