<svg width="6" height="4" viewBox="0 0 6 4" fill="none" xmlns="http://www.w3.org/2000/svg">
<path fill-rule="evenodd" clip-rule="evenodd" d="M5.86817 0.123225C5.95258 0.20206 6 0.308969 6 0.420441C6 0.531914 5.95258 0.638822 5.86817 0.717657L2.49344 3.86863C2.44884 3.91028 2.39589 3.94331 2.33762 3.96586C2.27934 3.9884 2.21688 4 2.1538 4C2.09072 4 2.02826 3.9884 1.96999 3.96586C1.91171 3.94331 1.85877 3.91028 1.81417 3.86863L0.137455 2.30337C0.0944515 2.26459 0.0601509 2.2182 0.036554 2.16691C0.0129571 2.11562 0.0005365 2.06046 1.69997e-05 2.00464C-0.0005025 1.94882 0.0108895 1.89347 0.0335282 1.8418C0.056167 1.79014 0.0895991 1.7432 0.131874 1.70373C0.174149 1.66426 0.224419 1.63304 0.279753 1.6119C0.335086 1.59077 0.394374 1.58013 0.454157 1.58061C0.513941 1.5811 0.573022 1.5927 0.627954 1.61473C0.682885 1.63676 0.732567 1.66879 0.774101 1.70894L2.15365 2.99702L5.23123 0.123225C5.27304 0.0841594 5.32269 0.0531695 5.37733 0.0320261C5.43198 0.0108826 5.49055 0 5.5497 0C5.60885 0 5.66742 0.0108826 5.72207 0.0320261C5.77671 0.0531695 5.82636 0.0841594 5.86817 0.123225Z" fill="white"/>
</svg>
