<svg width="30" height="30" viewBox="0 0 30 30" fill="none" xmlns="http://www.w3.org/2000/svg">
<g clip-path="url(#clip0_4501_1262)">
<path d="M15 26.25C21.2132 26.25 26.25 21.2132 26.25 15C26.25 8.7868 21.2132 3.75 15 3.75C8.7868 3.75 3.75 8.7868 3.75 15C3.75 21.2132 8.7868 26.25 15 26.25Z" stroke="#B0B0B0" stroke-width="2" stroke-linecap="round" stroke-linejoin="round"/>
<path d="M14.0625 14.0625C14.3111 14.0625 14.5496 14.1613 14.7254 14.3371C14.9012 14.5129 15 14.7514 15 15V19.6875C15 19.9361 15.0988 20.1746 15.2746 20.3504C15.4504 20.5262 15.6889 20.625 15.9375 20.625" stroke="#B0B0B0" stroke-width="2" stroke-linecap="round" stroke-linejoin="round"/>
<path d="M14.5312 11.25C15.3079 11.25 15.9375 10.6204 15.9375 9.84375C15.9375 9.0671 15.3079 8.4375 14.5312 8.4375C13.7546 8.4375 13.125 9.0671 13.125 9.84375C13.125 10.6204 13.7546 11.25 14.5312 11.25Z" fill="#B0B0B0"/>
</g>
<defs>
<clipPath id="clip0_4501_1262">
<rect width="30" height="30" fill="white"/>
</clipPath>
</defs>
</svg>
