<svg width="80" height="80" viewBox="0 0 80 80" fill="none" xmlns="http://www.w3.org/2000/svg">
<g clip-path="url(#clip0_4683_2699)">
<path d="M38.11 20.89C35.78 22.55 33.34 22.11 31.06 21.75C24.51 20.7 20.24 16.81 18.09 10.58C17.38 8.52996 18.09 7.45996 20.23 7.02996C29.43 5.20996 35.99 9.49996 37.99 18.65C38.05 18.91 38.14 19.16 38.3 19.69C39.27 16.33 40.62 13.46 42.62 10.94C43.19 10.22 43.83 9.33996 44.77 10.46C45.48 11.31 47.31 11.73 45.88 13.52C43.28 16.77 41.95 20.53 41.94 24.72C41.94 26.9 42 26.92 43.98 26.1C48.61 24.18 53.37 23.69 58.08 25.59C63.53 27.78 66.13 32.37 67.04 37.82C68.77 48.21 66.71 57.89 60.37 66.38C56.04 72.19 50.06 74.36 42.9 72.97C40.97 72.6 39.1 72.58 37.16 72.97C30.01 74.37 23.99 72.24 19.69 66.41C13.29 57.75 11 47.9 13.13 37.36C15.63 25.01 25.66 22.53 35.11 25.69C35.49 25.82 35.87 25.95 36.21 26.15C37.45 26.85 37.81 26.36 37.72 25.1C37.62 23.74 37.87 22.4 38.1 20.89H38.11ZM63.42 44.13C63.5 41.32 63.27 38.55 62.28 35.9C61.07 32.66 59.11 30.05 55.62 29.11C52.35 28.22 48.97 28.33 45.93 29.79C41.91 31.72 38.25 31.44 34.15 29.85C26.83 27.01 19.41 28.51 17.42 37.35C15.23 47.07 17.24 56.15 23.19 64.14C26.57 68.69 31.39 70.02 36.89 68.78C38.99 68.31 41.05 68.38 43.14 68.79C49.67 70.08 54.5 68.11 58.1 62.55C61.71 56.96 63.37 50.77 63.42 44.13ZM24.95 10.89C24.39 11 23.51 10.54 23.17 11.26C22.86 11.93 23.57 12.49 23.96 13.02C26.02 15.82 28.8 17.31 32.25 17.75C33.49 17.91 33.47 17.51 33.12 16.59C31.86 13.21 28.74 11 24.95 10.89Z" fill="#00C7BE"/>
<path d="M45.12 46.6801C46.59 47.2001 48.25 47.6501 49.49 48.9101C50.29 49.7301 50.36 50.6101 49.56 51.4701C48.81 52.2701 47.89 52.5301 46.98 51.8501C45.51 50.7501 44.85 49.1001 44.27 47.4301C44.07 46.8601 44.38 46.5801 45.13 46.6801H45.12Z" fill="#00C7BE"/>
<path d="M32.04 52.54C30.48 52.48 29.5 50.73 30.29 49.56C31.37 47.99 33.08 47.34 34.79 46.73C35.27 46.56 35.63 46.81 35.5 47.32C35.04 49.19 34.49 51.03 32.84 52.26C32.59 52.45 32.22 52.48 32.03 52.54H32.04Z" fill="#00C7BE"/>
</g>
<defs>
<clipPath id="clip0_4683_2699">
<rect width="80" height="80" fill="white"/>
</clipPath>
</defs>
</svg>
