<svg width="80" height="80" viewBox="0 0 80 80" fill="none" xmlns="http://www.w3.org/2000/svg">
<g clip-path="url(#clip0_4683_2701)">
<path d="M40.02 47.68C32.62 47.68 25.22 47.68 17.82 47.68C17.34 47.68 16.86 47.68 16.38 47.69C14.32 47.77 13.88 48.24 13.88 50.3C13.88 52.18 13.86 54.06 13.88 55.94C13.89 56.84 13.52 57.23 12.6 57.27C9.45 57.43 9.45 57.45 9.45 54.34C9.45 52.98 9.49 51.62 9.45 50.26C9.26 44.85 11.85 40.42 14.54 36.06C15.46 34.57 17.25 34.13 18.84 33.6C23.16 32.18 27.64 31.61 32.15 31.26C37.38 30.85 42.62 30.84 47.84 31.26C52.71 31.65 57.54 32.27 62.17 33.96C64.13 34.68 65.65 35.83 66.63 37.72C68.05 40.46 69.25 43.29 70.27 46.2C70.44 46.68 70.53 47.21 70.53 47.73C70.55 50.45 70.53 53.17 70.55 55.89C70.56 56.85 70.18 57.24 69.21 57.28C66.12 57.4 66.12 57.42 66.12 54.39C66.12 52.83 66.14 51.27 66.12 49.71C66.1 48.44 65.62 47.88 64.36 47.73C63.77 47.66 63.16 47.68 62.56 47.68C55.04 47.68 47.52 47.68 40 47.68H40.02Z" fill="#743E0F"/>
<path d="M40 17.6399C46.8 17.6399 53.59 17.6399 60.39 17.6399C64.17 17.6399 65.21 18.6799 65.21 22.4999C65.21 25.9399 65.21 29.3799 65.21 32.8099C65.21 33.1899 65.36 33.6899 64.92 33.8999C64.54 34.0799 64.28 33.6499 64 33.4699C63.19 32.9399 62.31 32.5499 61.39 32.2799C60.71 32.0799 60.42 31.6499 60.43 30.9599C60.44 30.1199 60.4 29.2799 60.43 28.4399C60.47 26.9499 59.67 26.0599 58.39 25.5099C57.5 25.1299 56.57 24.8799 55.61 24.7899C52.1 24.4599 48.6 24.2799 45.12 25.0899C43.2 25.5399 41.61 26.3099 41.69 28.6899C41.71 29.2299 41.36 29.4699 40.84 29.4699C40.44 29.4699 40.04 29.4399 39.64 29.4799C38.71 29.5699 38.27 29.2699 38.25 28.2299C38.22 26.7699 37.19 25.6199 35.45 25.2199C31.07 24.1999 26.65 24.1699 22.28 25.2599C20.21 25.7699 19.33 26.8799 19.5 28.9999C19.67 31.1199 19.14 32.3299 16.95 33.0199C14.71 33.7299 14.78 33.9699 14.78 31.5499C14.78 28.3099 14.78 25.0699 14.78 21.8399C14.78 18.8899 15.96 17.6699 18.91 17.6599C25.95 17.6399 32.98 17.6599 40.02 17.6599L40 17.6399Z" fill="#743E0F"/>
<path d="M40.05 48.9799C47.01 48.9799 53.96 48.9799 60.92 48.9799C61.56 48.9799 62.2 48.9699 62.84 49.0199C64.16 49.1199 64.76 49.6499 64.78 50.9799C64.83 54.3799 64.8 57.7699 64.81 61.1699C64.81 61.9499 64.47 62.3699 63.66 62.3599C62.7 62.3599 61.74 62.3499 60.78 62.3599C59.99 62.3699 59.59 62.0299 59.61 61.2099C59.63 60.3699 59.55 59.5299 59.62 58.6899C59.72 57.5499 59.23 57.2599 58.16 57.2699C52.88 57.3099 47.61 57.2899 42.33 57.2899C35.53 57.2899 28.74 57.3199 21.94 57.2599C20.72 57.2599 20.26 57.5899 20.4 58.8199C20.48 59.5699 20.4 60.3399 20.42 61.0999C20.45 61.9399 20.13 62.3799 19.24 62.3599C18.28 62.3399 17.32 62.3399 16.36 62.3599C15.55 62.3799 15.21 61.9899 15.21 61.1899C15.22 57.8299 15.19 54.4699 15.24 51.1199C15.26 49.5399 15.87 49.0099 17.64 48.9999C23.68 48.9699 29.71 48.9799 35.75 48.9799C37.19 48.9799 38.63 48.9799 40.07 48.9799H40.05Z" fill="#743E0F"/>
</g>
<defs>
<clipPath id="clip0_4683_2701">
<rect width="80" height="80" fill="white"/>
</clipPath>
</defs>
</svg>
