<svg width="30" height="30" viewBox="0 0 30 30" fill="none" xmlns="http://www.w3.org/2000/svg">
<g clip-path="url(#clip0_5409_61413)">
<path d="M15 19.6875C17.5888 19.6875 19.6875 17.5888 19.6875 15C19.6875 12.4112 17.5888 10.3125 15 10.3125C12.4112 10.3125 10.3125 12.4112 10.3125 15C10.3125 17.5888 12.4112 19.6875 15 19.6875Z" stroke="#6D6D6D" stroke-width="2" stroke-linecap="round" stroke-linejoin="round"/>
<path d="M4.85586 20.8707C4.33786 19.9785 3.94101 19.0212 3.67578 18.0242L5.64219 15.5633C5.61992 15.187 5.61992 14.8098 5.64219 14.4336L3.67695 11.9727C3.94173 10.9755 4.33777 10.0179 4.85469 9.125L7.98476 8.77344C8.23472 8.49183 8.5012 8.22534 8.78281 7.97539L9.13437 4.84648C10.026 4.33203 10.982 3.93834 11.9773 3.67578L14.4383 5.64219C14.8145 5.61992 15.1917 5.61992 15.568 5.64219L18.0289 3.67695C19.0261 3.94173 19.9837 4.33777 20.8766 4.85469L21.2281 7.98477C21.5097 8.23472 21.7762 8.5012 22.0262 8.78281L25.1551 9.13438C25.6731 10.0266 26.0699 10.9838 26.3352 11.9809L24.3687 14.4418C24.391 14.818 24.391 15.1953 24.3687 15.5715L26.334 18.0324C26.0711 19.0293 25.677 19.9869 25.1621 20.8801L22.032 21.2316C21.7821 21.5133 21.5156 21.7797 21.234 22.0297L20.8824 25.1586C19.9902 25.6766 19.033 26.0734 18.0359 26.3387L15.575 24.3723C15.1988 24.3945 14.8215 24.3945 14.4453 24.3723L11.9844 26.3375C10.9875 26.0746 10.0299 25.6805 9.13672 25.1656L8.78516 22.0355C8.50355 21.7856 8.23706 21.5191 7.98711 21.2375L4.85586 20.8707Z" stroke="#6D6D6D" stroke-width="2" stroke-linecap="round" stroke-linejoin="round"/>
</g>
<defs>
<clipPath id="clip0_5409_61413">
<rect width="30" height="30" fill="white"/>
</clipPath>
</defs>
</svg>
