<svg width="80" height="80" viewBox="0 0 80 80" fill="none" xmlns="http://www.w3.org/2000/svg">
<g clip-path="url(#clip0_5409_61423)">
<path d="M57.8192 54.7598C58.0992 63.4297 51.7192 72.3598 41.6392 73.7798C33.7992 74.8898 27.2092 72.5098 21.9992 66.5897C19.4792 63.7297 18.3692 60.1798 18.1992 56.3698C17.9692 51.3298 19.4592 46.6997 21.6492 42.2498C24.9792 35.4797 29.0092 29.0898 32.6492 22.4898C34.1992 19.6798 35.6692 16.8298 37.1692 13.9998C37.3892 13.5898 37.5492 13.1098 38.0992 13.0998C38.6692 13.0898 38.8092 13.6098 39.0092 14.0098C42.6492 21.2598 46.8592 28.1798 50.8292 35.2498C53.1892 39.4497 55.6192 43.6398 56.9192 48.3498C57.5092 50.4998 57.9292 52.6698 57.8292 54.7598H57.8192ZM50.1692 44.1498C49.9192 44.5998 50.0692 44.8798 50.0892 45.1498C50.4392 49.4198 50.2292 53.5898 48.1692 57.4998C47.1692 59.3998 45.7292 60.9398 44.1892 62.3898C43.1592 63.3598 42.1092 64.3098 41.4092 65.5498C40.6292 66.9298 41.3792 68.3097 42.9592 68.4497C43.3692 68.4897 43.8092 68.4498 44.2092 68.3298C48.1792 67.2498 50.3892 64.3298 51.8092 60.7298C52.9292 57.8898 53.1392 54.9198 52.6892 51.8898C52.2892 49.2197 51.4992 46.6898 50.1792 44.1498H50.1692Z" fill="#007AFF"/>
<path d="M62.0401 27.8394C62.0401 29.4194 62.1801 30.7394 62.0601 32.0794C61.7601 35.4994 60.2301 38.2394 57.7301 40.5094C57.2401 40.9494 57.0401 40.7394 56.8001 40.2694C53.5101 33.6794 49.5701 27.4494 46.0201 21.0094C45.5901 20.2394 45.6601 19.6894 46.0701 18.9794C48.4101 14.9194 50.8401 10.9194 52.8901 6.6994C53.0601 6.3494 53.2101 5.9394 53.6801 5.9494C54.1001 5.9594 54.2201 6.3594 54.3701 6.6694C57.4701 12.8394 61.1801 18.6794 64.4001 24.7794C65.9101 27.6294 67.0501 30.5894 67.4401 33.8394C68.0401 38.7894 64.9601 44.6494 60.4701 46.8494C59.9601 47.0994 59.6001 47.0994 59.4201 46.4794C59.3901 46.3794 59.3501 46.2794 59.3201 46.1794C58.6701 44.3994 58.6801 44.4094 60.1801 43.2894C61.6601 42.1794 62.6201 40.6994 63.2601 38.9594C64.4401 35.7594 63.9601 30.6894 62.0501 27.8594L62.0401 27.8394Z" fill="#007AFF"/>
<path d="M15.9092 32.1603C14.3392 35.5303 14.5392 40.0803 17.9492 42.4203C18.8792 43.0503 18.2092 43.7903 17.9492 44.3803C17.6592 45.0603 17.1392 44.4903 16.8192 44.2903C13.6192 42.3303 11.6692 38.2403 12.8192 33.8003C13.4292 31.4503 14.5592 29.3303 15.7292 27.2503C17.5592 24.0003 19.4892 20.8003 21.2192 17.4903C21.3992 17.1403 21.4792 16.5803 21.9792 16.5703C22.4892 16.5703 22.5692 17.1103 22.7492 17.4703C24.0892 20.1903 25.6792 22.7703 27.1792 25.4003C27.4692 25.9103 27.5392 26.3203 27.2292 26.8603C24.8092 31.2003 22.1492 35.4003 19.9492 39.8503C19.6192 40.5103 19.3492 40.3003 18.9292 39.9303C16.9492 38.2103 16.2392 35.9603 16.0992 33.4403C16.0792 33.0903 16.0792 32.7403 16.0592 32.3903C16.0592 32.3303 15.9892 32.2803 15.8892 32.1403L15.9092 32.1603Z" fill="#007AFF"/>
</g>
<defs>
<clipPath id="clip0_5409_61423">
<rect width="80" height="80" fill="white"/>
</clipPath>
</defs>
</svg>
