<svg width="24" height="24" viewBox="0 0 24 24" fill="none" xmlns="http://www.w3.org/2000/svg">
<g clip-path="url(#clip0_5013_38114)">
<circle cx="12" cy="12" r="12" fill="#D3D6F2"/>
<path d="M12.3296 3C8.40918 3 5.17057 5.93636 4.74443 9.82273L3.38081 11.6364C2.95467 12.3273 2.86945 13.1909 3.21035 13.8818C3.55126 14.4864 4.06262 14.9182 4.65921 15.0045V15.9545C4.65921 17.5091 5.76715 18.8909 7.21601 19.3227V22H16.5909V17.25C18.7216 15.7818 20 13.45 20 10.7727C20 6.45455 16.5909 3 12.3296 3ZM14.8864 16.2136V20.2727H8.92054V17.6818H8.06827C7.13078 17.6818 6.36374 16.9045 6.36374 15.9545V13.3636H5.08534C4.74443 13.3636 4.48875 12.9318 4.74443 12.6727L6.36374 10.5136C6.53419 7.31818 9.09099 4.72727 12.3296 4.72727C15.6534 4.72727 18.2955 7.40455 18.2955 10.7727C18.2955 13.1909 16.9318 15.2636 14.8864 16.2136Z" fill="#8882D2"/>
<circle cx="13.4091" cy="9.40907" r="2.90907" fill="white" stroke="#D52961"/>
<circle cx="13.4095" cy="9.40955" r="1.89393" fill="#F37998"/>
</g>
<defs>
<clipPath id="clip0_5013_38114">
<rect width="24" height="24" fill="white"/>
</clipPath>
</defs>
</svg>
