<svg width="40" height="40" viewBox="0 0 40 40" fill="none" xmlns="http://www.w3.org/2000/svg">
<g clip-path="url(#clip0_5409_61419)">
<path d="M12.5 17.5C15.2614 17.5 17.5 15.2614 17.5 12.5C17.5 9.73858 15.2614 7.5 12.5 7.5C9.73858 7.5 7.5 9.73858 7.5 12.5C7.5 15.2614 9.73858 17.5 12.5 17.5Z" stroke="#2E2E2E" stroke-width="2" stroke-linecap="round" stroke-linejoin="round"/>
<path d="M27.5 17.5C30.2614 17.5 32.5 15.2614 32.5 12.5C32.5 9.73858 30.2614 7.5 27.5 7.5C24.7386 7.5 22.5 9.73858 22.5 12.5C22.5 15.2614 24.7386 17.5 27.5 17.5Z" stroke="#2E2E2E" stroke-width="2" stroke-linecap="round" stroke-linejoin="round"/>
<path d="M12.5 32.5C15.2614 32.5 17.5 30.2614 17.5 27.5C17.5 24.7386 15.2614 22.5 12.5 22.5C9.73858 22.5 7.5 24.7386 7.5 27.5C7.5 30.2614 9.73858 32.5 12.5 32.5Z" stroke="#2E2E2E" stroke-width="2" stroke-linecap="round" stroke-linejoin="round"/>
<path d="M27.5 22.5V32.5" stroke="#2E2E2E" stroke-width="2" stroke-linecap="round" stroke-linejoin="round"/>
<path d="M32.5 27.5H22.5" stroke="#2E2E2E" stroke-width="2" stroke-linecap="round" stroke-linejoin="round"/>
</g>
<defs>
<clipPath id="clip0_5409_61419">
<rect width="40" height="40" fill="white"/>
</clipPath>
</defs>
</svg>
