<svg width="253" height="234" viewBox="0 0 253 234" fill="none" xmlns="http://www.w3.org/2000/svg">
<g filter="url(#filter0_f_8013_9412)">
<path d="M170.74 52.3774C170.74 53.9003 170.923 55.4575 170.706 56.9461C169.973 61.9957 171.908 64.8812 176.35 67.8927C189.987 77.179 192.803 91.1256 190.044 106.378C186.964 123.427 177.129 136.675 164.626 148.103C153.257 158.488 140.193 166.263 126.087 172.298C124.529 172.962 122.262 173.294 120.808 172.664C98.5618 163.069 78.8113 150.141 65.3008 129.393C57.8471 117.942 53.5993 105.462 55.4198 91.5149C56.8396 80.6599 61.9804 72.0377 71.495 66.5072C74.4261 64.8011 75.3993 62.9576 75.2505 59.7629C75.033 55.011 75.1474 50.2361 75.2047 45.4728C75.4108 28.2628 84.2957 15.5299 100.543 9.86194C115.026 4.8123 129.773 4.73214 144.326 9.51842C161.18 15.0604 170.007 27.1979 170.671 44.9575C170.763 47.4308 170.683 49.9155 170.683 52.3888C170.706 52.3888 170.717 52.3888 170.74 52.3888V52.3774ZM92.4821 61.0568C104.939 62.5568 115.244 67.1599 123.018 77.0988C130.758 66.8621 141.292 62.6484 153.36 60.9652C153.36 55.2285 153.451 49.927 153.337 44.6254C153.142 35.6254 148.608 29.4078 140.307 26.3734C128.64 22.1139 116.778 22.1482 105.134 26.5681C97.5085 29.4651 93.1462 35.2704 92.5623 43.4002C92.1615 49.0567 92.4821 54.7705 92.4821 61.0453V61.0568ZM122.961 139.091C124.106 139.091 125.251 139.091 126.396 139.091C134.044 139.023 135.601 136.927 133.369 129.656C132.361 126.381 131.262 123.13 130.277 119.855C129.098 115.973 127.587 112.469 130.701 108.233C133.059 105.015 131.754 100.755 128.285 98.0875C124.873 95.4539 121.106 95.4539 117.728 98.076C114.385 100.675 112.736 104.637 115.198 108.152C118.118 112.32 117.053 115.847 115.656 119.82C114.397 123.416 113.32 127.068 112.256 130.721C110.561 136.607 112.267 138.908 118.381 139.08C119.904 139.126 121.427 139.08 122.949 139.08L122.961 139.091Z" fill="#FBD0DA"/>
<path d="M172.24 52.3774C172.24 52.8341 172.256 53.2598 172.273 53.7149C172.284 54.0054 172.296 54.3079 172.304 54.6382C172.323 55.4306 172.317 56.2915 172.19 57.1615C171.859 59.4428 172.146 61.0819 172.903 62.4629C173.683 63.8869 175.051 65.1995 177.192 66.6511L177.195 66.6529C184.284 71.4804 188.608 77.5631 190.776 84.4475C192.935 91.3027 192.928 98.8629 191.52 106.645C188.359 124.141 178.271 137.664 165.638 149.21L165.638 149.21C154.119 159.732 140.903 167.591 126.677 173.677L126.675 173.677C125.753 174.071 124.645 174.358 123.547 174.46C122.471 174.559 121.259 174.494 120.212 174.041C97.8195 164.382 77.7757 151.3 64.0438 130.211L64.0437 130.211C56.4571 118.557 52.0529 105.72 53.9324 91.3208L53.9325 91.3204C55.4054 80.0592 60.7786 71.0013 70.7412 65.2104C72.0728 64.4352 72.8008 63.7197 73.2138 62.9697C73.6247 62.2235 73.8191 61.2697 73.7521 59.8327L73.7521 59.8315C73.5642 55.7288 73.6211 51.6075 73.6772 47.5431C73.6869 46.8452 73.6965 46.149 73.7048 45.4548C73.7048 45.4548 73.7048 45.4548 73.7048 45.4547L75.2047 45.4728C75.4108 28.2628 84.2957 15.5299 100.543 9.86194L172.24 52.3774ZM172.24 52.3774H172.183H172.24ZM112.256 130.721C110.561 136.607 112.267 138.908 118.381 139.08L130.277 119.855M112.256 130.721L113.696 131.141C113.696 131.14 113.696 131.14 113.696 131.139M112.256 130.721C113.32 127.068 114.397 123.416 115.656 119.82L129.491 107.346M112.256 130.721L113.697 131.136C113.697 131.137 113.696 131.138 113.696 131.139M113.696 131.139C112.864 134.03 113.072 135.437 113.599 136.155C114.128 136.876 115.415 137.496 118.423 137.581L118.426 137.581C119.413 137.61 120.375 137.601 121.371 137.59C121.885 137.585 122.409 137.58 122.949 137.58H123.57L123.582 137.591H123.585H123.592H123.598H123.605H123.612H123.618H123.625H123.632H123.638H123.645H123.652H123.659H123.665H123.672H123.679H123.685H123.692H123.699H123.706H123.712H123.719H123.726H123.732H123.739H123.746H123.753H123.759H123.766H123.773H123.779H123.786H123.793H123.799H123.806H123.813H123.82H123.826H123.833H123.84H123.846H123.853H123.86H123.867H123.873H123.88H123.887H123.893H123.9H123.907H123.914H123.92H123.927H123.934H123.94H123.947H123.954H123.961H123.967H123.974H123.981H123.987H123.994H124.001H124.007H124.014H124.021H124.028H124.034H124.041H124.048H124.054H124.061H124.068H124.075H124.081H124.088H124.095H124.101H124.108H124.115H124.122H124.128H124.135H124.142H124.148H124.155H124.162H124.168H124.175H124.182H124.189H124.195H124.202H124.209H124.215H124.222H124.229H124.236H124.242H124.249H124.256H124.262H124.269H124.276H124.283H124.289H124.296H124.303H124.309H124.316H124.323H124.329H124.336H124.343H124.35H124.356H124.363H124.37H124.376H124.383H124.39H124.397H124.403H124.41H124.417H124.423H124.43H124.437H124.444H124.45H124.457H124.464H124.47H124.477H124.484H124.49H124.497H124.504H124.511H124.517H124.524H124.531H124.537H124.544H124.551H124.558H124.564H124.571H124.578H124.584H124.591H124.598H124.605H124.611H124.618H124.625H124.631H124.638H124.645H124.652H124.658H124.665H124.672H124.678H124.685H124.692H124.698H124.705H124.712H124.719H124.725H124.732H124.739H124.745H124.752H124.759H124.766H124.772H124.779H124.786H124.792H124.799H124.806H124.813H124.819H124.826H124.833H124.839H124.846H124.853H124.859H124.866H124.873H124.88H124.886H124.893H124.9H124.906H124.913H124.92H124.927H124.933H124.94H124.947H124.953H124.96H124.967H124.974H124.98H124.987H124.994H125H125.007H125.014H125.02H125.027H125.034H125.041H125.047H125.054H125.061H125.067H125.074H125.081H125.088H125.094H125.101H125.108H125.114H125.121H125.128H125.135H125.141H125.148H125.155H125.161H125.168H125.175H125.181H125.188H125.195H125.202H125.208H125.215H125.222H125.228H125.235H125.242H125.249H125.255H125.262H125.269H125.275H125.282H125.289H125.296H125.302H125.309H125.316H125.322H125.329H125.336H125.342H125.349H125.356H125.363H125.369H125.376H125.383H125.389H125.396H125.403H125.41H125.416H125.423H125.43H125.436H125.443H125.45H125.457H125.463H125.47H125.477H125.483H125.49H125.497H125.504H125.51H125.517H125.524H125.53H125.537H125.544H125.55H125.557H125.564H125.571H125.577H125.584H125.591H125.597H125.604H125.611H125.618H125.624H125.631H125.638H125.644H125.651H125.658H125.665H125.671H125.678H125.685H125.691H125.698H125.705H125.711H125.718H125.725H125.732H125.738H125.745H125.752H125.758H125.765H125.772H125.779H125.785H125.792H125.799H125.805H125.812H125.819H125.826H125.832H125.839H125.846H125.852H125.859H125.866H125.872H125.879H125.886H125.893H125.899H125.906H125.913H125.919H125.926H125.933H125.94H125.946H125.953H125.96H125.966H125.973H125.98H125.987H125.993H126H126.007H126.013H126.02H126.027H126.034H126.04H126.047H126.054H126.06H126.067H126.074H126.08H126.087H126.094H126.101H126.107H126.114H126.121H126.127H126.134H126.141H126.148H126.154H126.161H126.168H126.174H126.181H126.188H126.195H126.201H126.208H126.215H126.221H126.228H126.235H126.241H126.248H126.255H126.262H126.268H126.275H126.282H126.288H126.295H126.302H126.309H126.315H126.322H126.329H126.335H126.342H126.349H126.356H126.362H126.369H126.376H126.382H126.389C128.251 137.574 129.632 137.433 130.636 137.162C131.63 136.895 132.119 136.537 132.382 136.183C132.643 135.83 132.838 135.264 132.798 134.248C132.757 133.219 132.479 131.869 131.935 130.097C131.499 128.682 131.031 127.223 130.56 125.755C129.973 123.927 129.381 122.084 128.842 120.29M113.696 131.139C114.761 127.485 115.827 123.868 117.072 120.316C117.764 118.348 118.459 116.273 118.545 114.119C118.634 111.889 118.073 109.642 116.427 107.292C115.469 105.924 115.327 104.532 115.724 103.199C116.136 101.815 117.158 100.42 118.648 99.2609C120.119 98.1191 121.589 97.6097 122.993 97.6108C124.397 97.6119 125.878 98.1243 127.368 99.2749L127.371 99.2765C130.454 101.648 131.194 105.022 129.491 107.346M128.842 120.29C128.841 120.289 128.841 120.288 128.841 120.287L130.277 119.855M128.842 120.29C128.842 120.29 128.842 120.29 128.842 120.291L130.277 119.855M128.842 120.29C128.751 119.991 128.655 119.685 128.556 119.373C128.057 117.786 127.509 116.046 127.383 114.284C127.222 112.052 127.716 109.761 129.491 107.346M130.277 119.855C130.177 119.525 130.075 119.198 129.973 118.873C128.875 115.373 127.851 112.109 130.701 108.233L129.491 107.346M151.861 59.6702C140.669 61.4165 130.645 65.4753 123 74.7047C115.362 65.7324 105.536 61.3522 93.9779 59.7386C93.9682 58.1757 93.9431 56.6605 93.9186 55.1799C93.8513 51.1208 93.7884 47.3208 94.0584 43.5077C94.6001 35.9662 98.5813 30.6621 105.667 27.9703C116.971 23.6796 128.461 23.6454 139.793 27.7825C143.71 29.2147 146.652 31.3634 148.643 34.137C150.634 36.9102 151.745 40.4079 151.837 44.6578C151.915 48.2805 151.897 51.8908 151.877 55.6642C151.871 56.9773 151.864 58.3102 151.861 59.6702Z" stroke="white" stroke-width="3"/>
</g>
<g clip-path="url(#clip0_8013_9412)">
<path d="M185.422 144.612C183.022 148.081 180.719 151.549 179.24 155.458C177.748 159.403 176.78 163.446 177.002 168.053C177.974 166.714 178.391 165.456 178.785 164.212C181.518 155.6 186.012 148.07 192.433 141.698C193.794 140.348 195.524 139.771 197.29 139.586C201.339 139.163 205.344 138.357 209.426 138.208C210.818 138.158 212.175 138.316 213.533 138.566C213.994 138.652 214.624 138.657 214.737 139.18C214.865 139.763 214.196 139.868 213.826 140.135C208.481 144.004 203.259 148.016 199.107 153.227C198.703 153.734 198.163 154.154 198.132 154.976C199.705 153.55 201.168 151.998 202.763 150.601C206.693 147.16 210.781 143.97 215.448 141.546C218.77 139.818 222.047 139.135 225.809 140.177C231.263 141.689 236.566 143.474 241.47 146.336C241.898 146.584 242.643 146.745 242.433 147.417C242.273 147.924 241.6 147.751 241.142 147.797C238.209 148.103 235.282 147.89 232.35 147.717C228.978 147.514 225.682 147.887 222.538 149.56C232.953 147.876 243.021 148.701 252.8 153.071C252.173 154.009 251.448 153.857 250.852 153.868C249.718 153.887 248.545 153.916 247.453 153.67C240.378 152.07 233.933 154.112 227.644 157.012C215.07 162.805 204.253 171.257 193.549 179.841C191.299 181.648 189.089 183.658 187.634 186.302C187.05 187.365 186.762 188.065 188.401 188.084C188.753 188.088 189.107 188.214 189.46 188.286C189.749 188.345 190.102 188.359 190.177 188.708C190.255 189.065 189.931 189.23 189.683 189.386C188.668 190.018 187.636 190.632 186.617 191.258C181.358 194.487 176.62 198.495 171.242 201.548C167.29 203.793 163.205 205.542 158.551 205.606C157.098 205.627 155.682 205.464 154.264 205.223C153.726 205.131 152.862 205.337 152.796 204.554C152.743 203.936 153.545 203.882 154.011 203.68C160.212 201.014 165.893 197.471 171.304 193.473C173.44 191.897 175.012 189.745 176.899 187.91C180.972 183.949 184.874 179.807 188.76 175.661C191.342 172.909 194.415 170.693 196.819 167.746C193.269 170.87 189.668 173.934 186.184 177.131C178.339 184.332 170.89 191.998 161.998 197.962C158.415 200.366 154.64 202.513 150.159 202.789C145.16 203.096 142.295 200.29 143.043 195.341C144.248 187.389 147.153 180.097 152.479 173.931C153.352 172.923 154.435 171.274 155.622 171.685C156.67 172.046 156.917 173.987 157.16 175.319C157.596 177.74 158.045 180.148 158.805 182.49C159.157 183.563 159.583 184.579 160.582 185.827C160.551 182.258 159.704 179.253 159.259 176.201C158.199 168.982 160.612 163.078 165.74 158.038C171.271 152.601 177.917 148.774 184.415 144.715C184.66 144.562 184.89 144.362 185.422 144.612Z" fill="white"/>
</g>
<g clip-path="url(#clip1_8013_9412)">
<path d="M40.5334 124.365C37.2323 123.844 34.6544 122.161 32.3853 119.895C29.2556 116.768 27.1284 113.008 25.3486 109.023C25.0217 108.289 24.3952 107.392 26.0422 107.446C26.7289 107.468 26.5418 106.962 26.4129 106.556C23.9099 98.57 20.4011 91.0662 15.5168 84.233C13.954 82.048 12.4587 79.8138 10.4196 78.0084C8.44778 76.264 6.3025 74.8949 3.64973 74.4109C2.66449 74.2321 1.64952 74.0458 0.519123 73.3097C5.82317 71.8467 10.4056 73.491 14.9913 75.2479C13.9173 74.0431 12.4699 73.6376 11.0761 73.1381C9.70949 72.6497 8.32607 72.2114 6.95997 71.7261C6.62358 71.607 6.23789 71.4397 6.21703 71.0186C6.19401 70.5476 6.62481 70.4776 6.96073 70.3703C10.0496 69.3995 13.2058 68.7696 16.4542 68.8694C19.4106 68.9622 20.9373 71.0653 22.1084 73.3639C23.3294 75.7517 24.3087 78.2621 25.4048 80.7151C25.6756 81.3234 25.9878 81.9152 26.6161 82.4125C26.2304 81.2575 25.8918 80.082 25.4528 78.9487C24.4029 76.2457 22.9055 73.7571 21.5894 71.1811C21.3908 70.7933 20.9527 70.3172 21.288 69.9081C21.6575 69.4585 22.1509 69.9252 22.5662 70.0434C29.2849 71.9606 33.0735 76.4729 34.4167 83.215C35.1889 87.0943 35.5213 90.9726 34.7936 95.1064C35.5935 93.8573 35.6993 93.27 35.7686 89.6537C35.8033 87.8455 35.6089 86.0479 35.518 84.2453C35.425 82.3928 35.0656 80.5729 34.8635 78.7483C35.0786 78.7118 35.2404 78.6592 35.2574 78.6846C37.1477 82.1288 39.8629 85.0304 41.7333 88.4874C44.3547 93.333 43.9957 98.3164 42.4941 103.387C41.8316 105.613 40.8491 107.723 40.224 109.984C41.1004 109.074 41.6834 108 42.1339 106.835C42.7119 105.341 43.2478 103.822 44.1206 102.463C44.5206 101.838 45.1398 101.444 45.4329 102.445C47.1932 108.421 48.6878 114.451 46.9535 120.703C45.9709 124.248 43.0809 125.012 40.5685 122.28C37.509 118.953 35.1853 115.079 33.3177 110.967C31.6801 107.354 30.1803 103.677 28.4997 100.072C30.0823 104.367 31.1795 108.82 32.9234 113.06C34.6833 117.338 38.1905 120.416 40.5272 124.366L40.5334 124.365Z" fill="white"/>
</g>
<defs>
<filter id="filter0_f_8013_9412" x="48.9995" y="0" width="148" height="179" filterUnits="userSpaceOnUse" color-interpolation-filters="sRGB">
<feFlood flood-opacity="0" result="BackgroundImageFix"/>
<feBlend mode="normal" in="SourceGraphic" in2="BackgroundImageFix" result="shape"/>
<feGaussianBlur stdDeviation="1.5" result="effect1_foregroundBlur_8013_9412"/>
</filter>
<clipPath id="clip0_8013_9412">
<rect width="62.0273" height="107.715" fill="white" transform="translate(206.347 112) rotate(41.4809)"/>
</clipPath>
<clipPath id="clip1_8013_9412">
<rect width="39.9707" height="59.3315" fill="white" transform="translate(0.162109 71.1685) rotate(-9.631)"/>
</clipPath>
</defs>
</svg>
