<svg width="183" height="214" viewBox="0 0 183 214" fill="none" xmlns="http://www.w3.org/2000/svg">
<g filter="url(#filter0_f_5053_66876)">
<path d="M93.3263 175.028C71.0756 175.028 48.84 175.059 26.5893 175.012C17.4608 174.996 13.0617 171.811 10.6895 163.87C8.25722 155.726 10.2841 145.825 16.8152 142.153C31.5439 133.851 34.5767 120.027 35.0571 104.491C35.4175 93.0205 34.3815 81.5182 36.0781 70.063C39.261 48.5491 51.032 34.0496 69.5592 25.262C74.0184 23.1436 77.5316 21.0094 80.2341 16.3489C86.4349 5.64684 100.803 5.97638 106.809 16.8981C109.151 21.1663 112.244 23.0651 116.253 24.9481C137.993 35.1637 150.244 52.4564 151.31 77.7678C151.866 90.7923 150.454 103.864 152.752 116.857C154.568 127.12 158.472 135.389 167.615 140.85C176.128 145.95 178.831 155.193 175.648 164.451C173.156 171.701 168.336 175.137 160.829 175.09C138.338 174.933 115.832 175.028 93.3413 175.028H93.3263Z" fill="#FBD0DA"/>
<path d="M9.25225 164.3L9.25221 164.3C7.96066 159.975 7.84904 155.186 8.93858 150.96C10.0262 146.742 12.3559 142.939 16.0787 140.846C30.0876 132.95 33.0814 119.851 33.5578 104.445L33.5579 104.444C33.6788 100.596 33.6414 96.7664 33.6037 92.901C33.5854 91.0351 33.5671 89.1608 33.5665 87.2718C33.5646 81.5078 33.7296 75.6812 34.5942 69.8434C37.8551 47.8027 49.9665 32.8951 68.9155 23.9071C73.2783 21.8345 76.4614 19.8648 78.9365 15.5964C85.7437 3.84854 101.575 4.26734 108.123 16.1753L108.124 16.1765C110.24 20.0327 112.991 21.7586 116.89 23.5905L116.891 23.5906C127.961 28.7925 136.687 35.8322 142.778 44.858C148.869 53.8855 152.266 64.8147 152.809 77.7039C153.003 82.258 152.959 86.8425 152.915 91.3813C152.896 93.3729 152.877 95.3557 152.878 97.3232C152.882 103.818 153.103 110.23 154.229 116.596M9.25225 164.3L152.752 116.857M9.25225 164.3C10.4932 168.453 12.3305 171.584 15.2408 173.638C18.134 175.68 21.8705 176.504 26.5861 176.512M9.25225 164.3L16.8152 142.153C10.2841 145.825 8.25722 155.726 10.6895 163.87C13.0617 171.811 17.4608 174.996 26.5893 175.012M154.229 116.596L152.752 116.857M154.229 116.596C154.229 116.596 154.229 116.596 154.229 116.595L152.752 116.857M154.229 116.596C156.001 126.61 159.748 134.404 168.385 139.562L168.386 139.563C177.581 145.072 180.451 155.095 177.066 164.939C175.747 168.776 173.763 171.741 170.993 173.726C168.221 175.713 164.807 176.615 160.82 176.59H160.819C144.467 176.476 128.111 176.495 111.751 176.514C105.615 176.521 99.4782 176.528 93.3413 176.528H93.3263C86.9701 176.528 80.6145 176.53 74.2591 176.533C58.3696 176.539 42.4812 176.545 26.5861 176.512M152.752 116.857C154.568 127.12 158.472 135.389 167.615 140.85C176.128 145.95 178.831 155.193 175.648 164.451C173.156 171.701 168.336 175.137 160.829 175.09C144.471 174.976 128.106 174.995 111.744 175.014C105.609 175.021 99.4745 175.028 93.3413 175.028H93.3263C86.9689 175.028 80.6127 175.03 74.257 175.033C58.3681 175.039 42.4825 175.045 26.5893 175.012M26.5861 176.512C26.5863 176.512 26.5865 176.512 26.5867 176.512L26.5893 175.012M26.5861 176.512L26.5893 175.012" stroke="#F6F6F6" stroke-width="3"/>
</g>
<g filter="url(#filter1_f_5053_66876)">
<path d="M92.1944 178.795C101.068 178.795 109.941 178.917 118.799 178.745C124.876 178.623 127.042 180.243 125.619 184.992C121.934 197.314 108.293 205.562 91.1277 205.488C74.4476 205.415 60.9515 197.094 57.4119 185.103C56.0542 180.513 57.622 178.61 63.974 178.745C73.3808 178.93 82.7876 178.795 92.1944 178.795Z" fill="#FBD0DA"/>
<path d="M91.1213 206.988L91.1211 206.988C74.0382 206.913 59.7654 198.372 55.9735 185.528L91.1213 206.988ZM91.1213 206.988C108.687 207.064 123.114 198.604 127.056 185.422C127.813 182.896 127.826 180.503 126.009 178.913C125.179 178.187 124.104 177.769 122.925 177.531C121.74 177.292 120.344 177.214 118.769 177.246M91.1213 206.988L118.769 177.246M118.769 177.246C112.536 177.367 106.304 177.341 100.05 177.316C97.436 177.305 94.8181 177.295 92.1944 177.295C89.3838 177.295 86.5793 177.307 83.7785 177.318C77.1767 177.347 70.5957 177.375 64.0046 177.246C62.3549 177.211 60.9312 177.305 59.7463 177.574C58.5622 177.842 57.5115 178.309 56.7328 179.1C55.0897 180.769 55.2739 183.163 55.9732 185.528L118.769 177.246Z" stroke="white" stroke-width="3"/>
</g>
<g filter="url(#filter2_f_5053_66876)">
<path d="M168.377 77.7908C168.135 81.3474 169.769 85.8955 164.944 86.3046C160.468 86.698 160.226 82.3861 159.999 79.0026C158.23 52.7373 145.421 33.9315 123.886 21.0113C123.008 20.492 122.131 19.9726 121.269 19.4376C119.046 18.0842 116.475 16.6206 118.033 13.426C119.636 10.1212 122.479 10.6405 125.232 11.9782C134.956 16.6993 143.561 23.1043 150.396 31.6496C161.134 45.0733 167.576 60.48 168.377 77.8066V77.7908Z" fill="#FBD0DA"/>
<path d="M169.209 77.7681L169.877 77.7908V77.8066L168.931 77.8285L169.874 77.8926C169.826 78.6044 169.862 79.3701 169.903 80.2345C169.907 80.32 169.912 80.4064 169.916 80.4938C169.959 81.4122 169.999 82.4597 169.865 83.4327C169.729 84.4202 169.394 85.495 168.553 86.3521C167.7 87.2217 166.517 87.6765 165.072 87.7992C163.71 87.9183 162.519 87.6893 161.532 87.0844C160.55 86.4828 159.919 85.6008 159.509 84.6817C158.761 83.0082 158.621 80.8956 158.517 79.3119C158.512 79.2413 158.507 79.1718 158.503 79.1034C156.769 53.3703 144.266 34.9889 123.118 22.2998L123.114 22.2979C122.244 21.7824 121.357 21.2576 120.484 20.7155C120.416 20.6743 120.346 20.632 120.275 20.5888C119.268 19.9792 117.919 19.1621 117.049 18.0425C116.548 17.3974 116.164 16.6088 116.075 15.6621C115.988 14.722 116.203 13.756 116.684 12.77C117.683 10.7107 119.218 9.63817 121.063 9.46754C122.742 9.31234 124.45 9.9306 125.887 10.6288L169.209 77.7681ZM169.209 77.7681L169.876 77.7373C169.058 60.059 162.48 44.3548 151.568 30.7126L151.568 30.7126C144.572 21.9679 135.78 15.4323 125.887 10.6291L169.209 77.7681Z" stroke="white" stroke-width="3"/>
</g>
<g filter="url(#filter3_f_5053_66876)">
<path d="M18.1788 76.594C21.3297 47.6871 34.9735 26.0385 59.675 12.388C62.4245 10.8765 65.5159 9.66419 67.344 13.5373C69.0681 17.1743 66.1847 18.6071 63.7621 20.0083C41.29 32.9975 28.107 52.4735 26.3681 79.9949C26.16 83.2225 25.4466 87.0956 21.4783 86.1982C16.7372 85.1276 18.699 80.3255 18.1937 76.594H18.1788Z" fill="#FBD0DA"/>
<path d="M63.7621 20.0083C63.8732 19.9441 63.9852 19.8798 64.0978 19.8152C66.4394 18.4711 68.989 17.0076 67.344 13.5373C65.5159 9.66419 62.4245 10.8765 59.675 12.388C35.4026 25.8013 21.8071 46.9374 18.3526 75.094H18.1937H18.1788V76.594L63.7621 20.0083ZM63.7621 20.0083C41.29 32.9975 28.107 52.4735 26.3681 79.9949L63.7621 20.0083ZM16.6877 76.4315L16.5064 78.094H16.7858C16.7878 78.5226 16.7734 78.9765 16.7545 79.4597C16.7513 79.5424 16.7479 79.6261 16.7445 79.7108C16.7085 80.6007 16.6682 81.5985 16.7539 82.5311C16.8488 83.5655 17.1096 84.695 17.8328 85.6664C18.5802 86.6701 19.6902 87.3322 21.1479 87.6613C22.3788 87.9396 23.5162 87.8806 24.5111 87.4255C25.503 86.9718 26.1826 86.2025 26.6442 85.3724C27.5253 83.788 27.7611 81.7023 27.865 80.0914L27.8651 80.0894C29.5707 53.0957 42.4516 34.0587 64.5128 21.307L64.5132 21.3068C64.6229 21.2433 64.7381 21.1775 64.8576 21.1093C65.9289 20.4979 67.3468 19.6885 68.2691 18.5609C68.8235 17.8833 69.2452 17.0481 69.3451 16.0327C69.4439 15.0298 69.2157 13.9846 68.7005 12.8971C68.1627 11.7577 67.4752 10.8721 66.6136 10.277C65.7378 9.67209 64.7837 9.43797 63.8463 9.44345C62.0787 9.4538 60.3143 10.3249 58.9524 11.0735L58.9494 11.0751C33.7891 24.9792 19.8873 47.0766 16.6877 76.4315Z" stroke="white" stroke-width="3"/>
</g>
<path d="M91.0389 98.6152C100.571 98.6152 110.103 98.6152 119.633 98.6152C120.988 98.6152 120.964 98.6192 120.962 99.9938C120.948 109.678 120.962 119.36 120.932 129.044C120.92 132.949 118.295 136.083 114.462 136.867C113.948 136.972 113.408 136.99 112.879 136.99C98.3323 136.996 83.7873 137.006 69.2403 136.988C64.4065 136.982 61.0279 133.614 61.0159 128.798C60.994 119.183 61.006 109.567 61.008 99.9482C61.008 98.639 61.0319 98.6172 62.3455 98.6172C71.9093 98.6152 81.4751 98.6172 91.0389 98.6172V98.6152ZM107.581 120.469C109.172 120.465 110.286 119.368 110.286 117.809C110.286 116.251 109.15 115.137 107.579 115.153C106.016 115.166 104.928 116.291 104.94 117.876C104.952 119.415 106.03 120.473 107.583 120.469H107.581ZM74.365 125.267C72.8023 125.263 71.678 126.386 71.6721 127.955C71.6661 129.492 72.8122 130.595 74.4049 130.587C75.9537 130.579 77.03 129.504 77.0241 127.969C77.0201 126.372 75.9357 125.271 74.365 125.267ZM74.4108 120.471C75.9576 120.463 77.028 119.388 77.0221 117.85C77.0141 116.245 75.9417 115.156 74.363 115.153C72.8023 115.149 71.6621 116.287 71.6781 117.838C71.694 119.401 72.8122 120.48 74.4089 120.471H74.4108ZM96.4965 110.358C98.0513 110.368 99.2572 109.204 99.2393 107.712C99.2213 106.24 98.0632 105.068 96.5982 105.044C95.0773 105.018 93.8355 106.191 93.8135 107.672C93.7916 109.226 94.9138 110.348 96.4945 110.36L96.4965 110.358ZM96.5364 130.587C97.9855 130.587 99.2492 129.381 99.2552 127.992C99.2612 126.495 98.0493 125.271 96.5583 125.269C95.0474 125.267 93.8095 126.471 93.8135 127.939C93.8175 129.494 94.9437 130.591 96.5344 130.589L96.5364 130.587ZM110.286 107.754C110.306 106.228 109.222 105.078 107.735 105.044C106.14 105.008 104.974 106.08 104.938 107.611C104.9 109.198 105.985 110.346 107.529 110.36C109.118 110.374 110.266 109.289 110.284 107.754H110.286ZM96.5025 120.473C98.0174 120.48 99.2492 119.288 99.2492 117.811C99.2492 116.378 98.0433 115.172 96.5902 115.155C95.0793 115.137 93.8335 116.321 93.8175 117.793C93.8016 119.35 94.9178 120.463 96.5025 120.473ZM82.7946 107.615C82.7647 109.235 83.7992 110.332 85.3819 110.36C86.9227 110.386 88.1008 109.321 88.1426 107.863C88.1865 106.286 87.0224 105.06 85.4636 105.044C83.9467 105.028 82.8245 106.109 82.7966 107.617L82.7946 107.615ZM82.7946 127.941C82.7966 129.5 83.9109 130.593 85.4915 130.587C87.0084 130.581 88.1207 129.482 88.1386 127.975C88.1566 126.447 86.9885 125.267 85.4616 125.267C83.8929 125.267 82.7906 126.372 82.7926 127.943L82.7946 127.941ZM85.4676 120.471C87.0344 120.469 88.1586 119.338 88.1386 117.787C88.1207 116.289 86.9108 115.139 85.3739 115.155C83.875 115.17 82.7946 116.281 82.7906 117.809C82.7867 119.382 83.885 120.475 85.4656 120.471H85.4676Z" fill="white"/>
<path d="M90.9809 95.6796C81.449 95.6796 71.9171 95.6796 62.3852 95.6796C61.0018 95.6796 60.9998 95.6756 61.0038 94.3327C61.0098 92.4166 60.9799 90.4984 61.0277 88.5823C61.1314 84.4762 64.5937 81.0605 68.7278 80.9653C70.0892 80.9335 71.4526 80.991 72.8121 80.9434C73.6572 80.9137 73.9163 81.2687 73.8924 82.0602C73.8526 83.3813 73.8406 84.7063 73.8964 86.0254C73.9821 87.9971 75.192 89.5542 76.9123 90.0184C78.7222 90.5084 80.554 89.7923 81.5905 88.1975C81.9991 87.5667 82.1765 86.8744 82.1745 86.1286C82.1745 84.7738 82.2044 83.417 82.1686 82.0642C82.1486 81.2787 82.4018 80.9375 83.2489 80.9414C88.3956 80.9672 93.5443 80.9653 98.6929 80.9414C99.5102 80.9375 99.8231 81.2192 99.7972 82.0364C99.7534 83.3575 99.7573 84.6805 99.7912 86.0016C99.855 88.4176 101.613 90.1335 103.975 90.1235C106.327 90.1136 108.043 88.3681 108.075 85.9322C108.091 84.6428 108.109 83.3535 108.071 82.0661C108.047 81.2747 108.305 80.9196 109.152 80.9494C110.579 80.999 112.008 80.9216 113.435 80.9772C117.223 81.1239 120.571 84.3314 120.926 88.0923C121.141 90.3695 120.828 92.6467 120.954 94.9219C120.986 95.4971 120.695 95.6895 120.175 95.6796C119.876 95.6737 119.577 95.6836 119.278 95.6836C109.845 95.6836 100.413 95.6836 90.9809 95.6836V95.6796Z" fill="white"/>
<path d="M106.304 82.6812C106.304 83.7702 106.371 84.8632 106.288 85.9442C106.148 87.7473 104.661 88.7391 103.098 88.1361C102.249 87.8088 101.739 87.178 101.661 86.2814C101.452 83.8813 101.462 81.4712 101.651 79.075C101.755 77.7797 102.831 76.9585 104.021 77.0021C105.213 77.0458 106.18 77.9245 106.28 79.2218C106.367 80.3683 106.298 81.5287 106.298 82.6812H106.302H106.304Z" fill="white"/>
<path d="M80.4162 82.6237C80.4162 83.6135 80.4341 84.6033 80.4122 85.5931C80.3763 87.1602 79.4993 88.2333 78.2236 88.3186C76.8462 88.4099 75.7778 87.4815 75.722 85.847C75.6423 83.5441 75.7041 81.2332 75.8037 78.9302C75.8536 77.8035 76.9339 76.9863 78.0821 77.0002C79.3199 77.016 80.2627 77.8373 80.3664 79.1603C80.4561 80.3068 80.3843 81.4672 80.3843 82.6217H80.4142L80.4162 82.6237Z" fill="white"/>
<defs>
<filter id="filter0_f_5053_66876" x="3.69537" y="2.51074" width="179.241" height="178.58" filterUnits="userSpaceOnUse" color-interpolation-filters="sRGB">
<feFlood flood-opacity="0" result="BackgroundImageFix"/>
<feBlend mode="normal" in="SourceGraphic" in2="BackgroundImageFix" result="shape"/>
<feGaussianBlur stdDeviation="1.5" result="effect1_foregroundBlur_5053_66876"/>
</filter>
<filter id="filter1_f_5053_66876" x="50.9617" y="172.739" width="81.0741" height="38.75" filterUnits="userSpaceOnUse" color-interpolation-filters="sRGB">
<feFlood flood-opacity="0" result="BackgroundImageFix"/>
<feBlend mode="normal" in="SourceGraphic" in2="BackgroundImageFix" result="shape"/>
<feGaussianBlur stdDeviation="1.5" result="effect1_foregroundBlur_5053_66876"/>
</filter>
<filter id="filter2_f_5053_66876" x="111.556" y="4.94336" width="62.9008" height="87.3862" filterUnits="userSpaceOnUse" color-interpolation-filters="sRGB">
<feFlood flood-opacity="0" result="BackgroundImageFix"/>
<feBlend mode="normal" in="SourceGraphic" in2="BackgroundImageFix" result="shape"/>
<feGaussianBlur stdDeviation="1.5" result="effect1_foregroundBlur_5053_66876"/>
</filter>
<filter id="filter3_f_5053_66876" x="11.834" y="4.94336" width="62.0336" height="87.3862" filterUnits="userSpaceOnUse" color-interpolation-filters="sRGB">
<feFlood flood-opacity="0" result="BackgroundImageFix"/>
<feBlend mode="normal" in="SourceGraphic" in2="BackgroundImageFix" result="shape"/>
<feGaussianBlur stdDeviation="1.5" result="effect1_foregroundBlur_5053_66876"/>
</filter>
</defs>
</svg>
