<svg width="24" height="24" viewBox="0 0 24 24" fill="none" xmlns="http://www.w3.org/2000/svg">
<path d="M17.25 1.5H6.75C5.35807 1.50149 4.02358 2.05509 3.03933 3.03933C2.05509 4.02358 1.50149 5.35807 1.5 6.75V17.25C1.50149 18.6419 2.05509 19.9764 3.03933 20.9607C4.02358 21.9449 5.35807 22.4985 6.75 22.5H17.25C18.6419 22.4985 19.9764 21.9449 20.9607 20.9607C21.9449 19.9764 22.4985 18.6419 22.5 17.25V6.75C22.4985 5.35807 21.9449 4.02358 20.9607 3.03933C19.9764 2.05509 18.6419 1.50149 17.25 1.5ZM18.9473 9.84375L17.3855 11.6817C17.2019 11.8994 16.973 12.0744 16.7149 12.1946C16.4567 12.3147 16.1754 12.3771 15.8906 12.3773C15.5213 12.3769 15.1594 12.2733 14.8458 12.0783C14.1792 11.6667 13.1442 11.1759 12.0009 11.1759C10.8577 11.1759 9.82266 11.6667 9.15609 12.0783C8.7558 12.3291 8.27848 12.427 7.81177 12.3542C7.34506 12.2813 6.9203 12.0426 6.61547 11.6817L5.05266 9.84375C4.65177 9.37547 4.44946 8.76923 4.48877 8.15404C4.52808 7.53886 4.8059 6.9633 5.26312 6.54984C6.56812 5.36156 8.79609 3.945 12 3.945C15.2039 3.945 17.4319 5.36156 18.7369 6.54984C19.1941 6.9633 19.4719 7.53886 19.5112 8.15404C19.5505 8.76923 19.3482 9.37547 18.9473 9.84375Z" fill="#6D6D6D"/>
</svg>
