<svg width="24" height="24" viewBox="0 0 24 24" fill="none" xmlns="http://www.w3.org/2000/svg">
<g clip-path="url(#clip0_5013_38134)">
<circle cx="12" cy="12" r="12" fill="#FDE6E9"/>
<path d="M12.8468 4.14001C12.7536 4.05019 12.6292 4 12.4998 4C12.3703 4 12.2459 4.05019 12.1528 4.14001L7.86676 8.28301L7.86276 8.28601C6.96948 9.16297 6.36076 10.2884 6.11576 11.516C5.87467 12.7379 6.01212 14.0043 6.50976 15.146C7.01416 16.2984 7.84948 17.2751 8.90976 17.952C9.98154 18.6376 11.2275 19.0013 12.4998 19C13.772 19.0013 15.018 18.6376 16.0898 17.952C17.15 17.2754 17.9853 16.2991 18.4898 15.147C18.9874 14.0053 19.1249 12.7389 18.8838 11.517C18.6387 10.2894 18.03 9.16401 17.1368 8.28701L12.8468 4.14001Z" fill="#B31D51"/>
</g>
<defs>
<clipPath id="clip0_5013_38134">
<rect width="24" height="24" fill="white"/>
</clipPath>
</defs>
</svg>
