<svg width="24" height="24" viewBox="0 0 24 24" fill="none" xmlns="http://www.w3.org/2000/svg">
<g clip-path="url(#clip0_5013_38097)">
<circle cx="12" cy="12" r="12" fill="#FDE6E9"/>
<path d="M8.699 10.6452L8.595 10.1552M13.59 9.60523L13.486 9.11523M8.5 15.5692C9.758 15.8852 11.186 15.8852 12.623 15.5002C14.059 15.1152 15.295 14.4012 16.227 13.4992" stroke="#F37998" stroke-width="1.5" stroke-linecap="round" stroke-linejoin="round"/>
<path d="M12.5879 15.6365L13.0659 16.6105C13.1524 16.7879 13.273 16.9465 13.4208 17.0771C13.5687 17.2078 13.7409 17.308 13.9275 17.372C14.1142 17.4361 14.3116 17.4626 14.5086 17.4502C14.7055 17.4378 14.8981 17.3866 15.0752 17.2997C15.2523 17.2127 15.4106 17.0917 15.5408 16.9435C15.6711 16.7953 15.7709 16.6228 15.8344 16.436C15.8979 16.2491 15.9239 16.0516 15.911 15.8547C15.898 15.6578 15.8463 15.4654 15.7589 15.2885L15.2989 14.3535" stroke="#F37998" stroke-width="1.5" stroke-linecap="round" stroke-linejoin="round"/>
<path d="M12 21C16.9706 21 21 16.9706 21 12C21 7.02944 16.9706 3 12 3C7.02944 3 3 7.02944 3 12C3 16.9706 7.02944 21 12 21Z" stroke="#F37998" stroke-width="1.5" stroke-linecap="round" stroke-linejoin="round"/>
</g>
<defs>
<clipPath id="clip0_5013_38097">
<rect width="24" height="24" fill="white"/>
</clipPath>
</defs>
</svg>
