<svg width="24" height="24" viewBox="0 0 24 24" fill="none" xmlns="http://www.w3.org/2000/svg">
<g clip-path="url(#clip0_5013_38137)">
<circle cx="12" cy="12" r="12" fill="#FDE6E9"/>
<path d="M12.5 8.645C11.5 8.645 12.9262 6.30873 12 5.99999C10.5 5.49999 11.5 7.99993 9.5 6.99999C7.5 6.00006 7.71307 8.645 7.5 8.5C7.28693 8.355 7.56504 7.93101 6.86276 7.93101C6.16048 7.93101 5.36076 9.93343 5.11576 11.161C4.87467 12.3829 5.01212 13.6493 5.50976 14.791C6.01416 15.9434 6.84948 16.9201 7.90976 17.597C8.98154 18.2826 10.2275 18.6463 11.4998 18.645C12.772 18.6463 14.018 18.2826 15.0898 17.597C16.15 16.9204 16.9853 15.9441 17.4898 14.792C17.9874 13.6503 19.1162 10.499 17.5 10.5C15.8838 10.501 18.247 8.644 16.5 7.93101C14.753 7.21803 17 6.145 15.5 5.145C14 4.145 13.5 8.645 12.5 8.645Z" fill="#B31D51"/>
</g>
<defs>
<clipPath id="clip0_5013_38137">
<rect width="24" height="24" fill="white"/>
</clipPath>
</defs>
</svg>
