<svg width="24" height="24" viewBox="0 0 24 24" fill="none" xmlns="http://www.w3.org/2000/svg">
<g clip-path="url(#clip0_5013_38120)">
<circle cx="12" cy="12" r="12" fill="#FDE6E9"/>
<path d="M12.4062 6.15C12.2929 6.05309 12.1487 5.99989 11.9996 6C11.8505 6.00011 11.7063 6.05354 11.5931 6.15062L11.5375 6.19875C11.3135 6.39829 11.094 6.60292 10.8794 6.8125C10.3333 7.34492 9.81615 7.90614 9.33 8.49375C8.76625 9.1775 8.19062 9.97687 7.75375 10.82C7.31937 11.6575 7 12.58 7 13.5C7 14.8261 7.52678 16.0978 8.46447 17.0355C9.40215 17.9732 10.6739 18.5 12 18.5C13.3261 18.5 14.5979 17.9732 15.5355 17.0355C16.4732 16.0978 17 14.8261 17 13.5C17 12.58 16.6806 11.6575 16.2463 10.82C15.8088 9.97625 15.2337 9.1775 14.67 8.49312C14.0339 7.72472 13.345 7.00171 12.6081 6.32937L12.4069 6.15062L12.4062 6.15ZM8.25 13.5C8.25 12.8575 8.4775 12.1394 8.86312 11.395C9.24688 10.6562 9.765 9.93187 10.2944 9.28812C10.8248 8.64704 11.3945 8.03942 12 7.46875C12.6053 8.03904 13.1747 8.64624 13.705 9.28687C14.235 9.93062 14.7531 10.6556 15.1362 11.3944C15.5225 12.1387 15.75 12.8569 15.75 13.4994C15.75 14.4939 15.3549 15.4478 14.6517 16.151C13.9484 16.8543 12.9946 17.2494 12 17.2494C11.0054 17.2494 10.0516 16.8543 9.34835 16.151C8.64509 15.4478 8.25 14.4939 8.25 13.4994V13.5Z" fill="#B31D51"/>
<path d="M9.7244 13.5259C9.56554 13.573 9.43191 13.6814 9.35292 13.8271C9.27392 13.9728 9.25602 14.1439 9.30315 14.3027C9.43693 14.7505 9.68001 15.158 10.0105 15.4885C10.341 15.819 10.7485 16.0621 11.1963 16.1959C11.2751 16.2199 11.358 16.2282 11.4401 16.2201C11.5221 16.212 11.6018 16.1877 11.6744 16.1487C11.7471 16.1097 11.8113 16.0567 11.8633 15.9928C11.9154 15.9289 11.9543 15.8553 11.9778 15.7762C12.0013 15.6972 12.009 15.6143 12.0003 15.5323C11.9916 15.4503 11.9668 15.3708 11.9272 15.2984C11.8877 15.2261 11.8342 15.1623 11.7699 15.1106C11.7056 15.059 11.6317 15.0207 11.5525 14.9977C11.304 14.9232 11.0778 14.7881 10.8943 14.6047C10.7109 14.4212 10.5758 14.195 10.5013 13.9465C10.454 13.7877 10.3456 13.6543 10.1999 13.5754C10.0542 13.4965 9.8832 13.4787 9.7244 13.5259Z" fill="#B31D51"/>
</g>
<defs>
<clipPath id="clip0_5013_38120">
<rect width="24" height="24" fill="white"/>
</clipPath>
</defs>
</svg>
