<svg width="24" height="24" viewBox="0 0 24 24" fill="none" xmlns="http://www.w3.org/2000/svg">
<g clip-path="url(#clip0_5013_38125)">
<circle cx="12" cy="12" r="12" fill="#FDE6E9"/>
<path d="M11.4875 5.18C11.3515 5.0637 11.1784 4.99986 10.9995 5C10.8206 5.00014 10.6476 5.06424 10.5118 5.18075L10.445 5.2385C10.1762 5.47794 9.91285 5.72351 9.65525 5.975C9.00001 6.61391 8.37938 7.28737 7.796 7.9925C7.1195 8.813 6.42875 9.77225 5.9045 10.784C5.38325 11.789 5 12.896 5 14C5 15.5913 5.63214 17.1174 6.75736 18.2426C7.88258 19.3679 9.4087 20 11 20C12.5913 20 14.1174 19.3679 15.2426 18.2426C16.3679 17.1174 17 15.5913 17 14C17 12.896 16.6168 11.789 16.0955 10.784C15.5705 9.7715 14.8805 8.813 14.204 7.99175C13.4407 7.06967 12.614 6.20205 11.7298 5.39525L11.4883 5.18075L11.4875 5.18ZM6.5 14C6.5 13.229 6.773 12.3672 7.23575 11.474C7.69625 10.5875 8.318 9.71825 8.95325 8.94575C9.58978 8.17645 10.2733 7.4473 11 6.7625C11.7264 7.44685 12.4097 8.17549 13.046 8.94425C13.682 9.71675 14.3038 10.5867 14.7635 11.4732C15.227 12.3665 15.5 13.2282 15.5 13.9992C15.5 15.1927 15.0259 16.3373 14.182 17.1812C13.3381 18.0251 12.1935 18.4993 11 18.4993C9.80653 18.4993 8.66193 18.0251 7.81802 17.1812C6.97411 16.3373 6.5 15.1927 6.5 13.9992V14Z" fill="#B31D51"/>
<path d="M8.27084 14.031C8.08021 14.0876 7.91986 14.2177 7.82506 14.3925C7.73027 14.5673 7.70879 14.7726 7.76534 14.9633C7.92588 15.5007 8.21757 15.9897 8.61415 16.3862C9.01072 16.7828 9.49972 17.0745 10.0371 17.235C10.1317 17.2639 10.2312 17.2738 10.3296 17.2641C10.4281 17.2544 10.5237 17.2253 10.6109 17.1785C10.698 17.1317 10.7751 17.0681 10.8376 16.9914C10.9001 16.9146 10.9468 16.8263 10.975 16.7315C11.0032 16.6366 11.0123 16.5371 11.0019 16.4387C10.9915 16.3403 10.9617 16.245 10.9142 16.1581C10.8668 16.0713 10.8027 15.9947 10.7255 15.9328C10.6483 15.8708 10.5596 15.8248 10.4646 15.7973C10.1663 15.7078 9.89495 15.5458 9.67477 15.3256C9.4546 15.1054 9.29253 14.834 9.20309 14.5358C9.14632 14.3453 9.01624 14.1851 8.84143 14.0905C8.66663 13.9958 8.4614 13.9744 8.27084 14.031Z" fill="#B31D51"/>
<path d="M17.8713 11.0643C17.8882 11.0439 17.9082 11.0277 17.9303 11.0167C17.9524 11.0057 17.9761 11 18 11C18.0239 11 18.0476 11.0057 18.0697 11.0167C18.0918 11.0277 18.1118 11.0439 18.1287 11.0643C18.3218 11.297 18.7847 11.9672 19.2 12.7717C19.6109 13.5679 20 14.5435 20 15.3751C20 16.1819 19.808 16.8416 19.4509 17.3018C19.0935 17.7633 18.5876 18 18 18C17.4124 18 16.9069 17.7633 16.5491 17.3018C16.1916 16.8416 16 16.1819 16 15.3751C16 14.5431 16.3891 13.5684 16.8 12.7717C17.2153 11.9668 17.6782 11.2974 17.8713 11.0643Z" fill="#B31D51"/>
</g>
<defs>
<clipPath id="clip0_5013_38125">
<rect width="24" height="24" fill="white"/>
</clipPath>
</defs>
</svg>
