<svg width="80" height="80" viewBox="0 0 80 80" fill="none" xmlns="http://www.w3.org/2000/svg">
<g clip-path="url(#clip0_4683_2700)">
<path d="M44.12 22.62C46.97 20.22 49.51 21.34 52.07 23.24C58.98 28.38 62.23 35.63 63.97 43.74C64.4 45.76 63.34 47.33 61.37 47.88C59.24 48.47 57.93 47.18 57.27 45.32C56.63 43.53 56.2 41.66 55.41 39.81C55.31 45.59 53.29 50.64 50.73 55.68C48.81 59.46 49.49 63.99 48.87 68.17C48.44 71.1 48.66 74.43 44.76 75.04C42.2 75.44 40.73 72.67 40.71 67.98C40.71 66.14 40.71 64.29 40.71 62.45L39.42 62.43C39.42 64.77 39.58 67.13 39.38 69.46C39.15 72.07 38.61 74.99 35.26 75C32.17 75.01 31.55 72.28 31.17 69.79C30.92 68.14 30.87 66.47 30.7 64.81C30.27 60.36 30.03 55.95 27.4 51.96C25.18 48.58 25.04 44.44 24.43 40.33C23.18 41.95 23.27 43.85 22.58 45.47C21.86 47.15 20.72 48.38 18.76 47.97C16.72 47.54 15.62 46.04 15.99 43.98C17.68 34.63 21.7 26.73 30.25 21.75C31.79 20.85 33.18 21.13 34.62 21.85C37.65 23.72 40.73 24.98 44.1 22.6L44.12 22.62Z" fill="#8882D2"/>
<path d="M44.12 21.3099C40.75 23.6799 37.67 22.4299 34.64 20.5599C32.3 17.9999 30.73 15.1199 31.65 11.5399C32.54 8.07994 34.62 5.59994 38.35 5.04994C42.25 4.46994 45.44 5.75994 47.43 9.25994C49.33 12.5999 48.96 15.8699 46.5 18.8399C45.77 19.7199 44.92 20.4999 44.13 21.3199L44.12 21.3099Z" fill="#8882D2"/>
</g>
<defs>
<clipPath id="clip0_4683_2700">
<rect width="80" height="80" fill="white"/>
</clipPath>
</defs>
</svg>
