<svg width="24" height="24" viewBox="0 0 24 24" fill="none" xmlns="http://www.w3.org/2000/svg">
<g clip-path="url(#clip0_4685_3341)">
<circle cx="12" cy="12" r="12" fill="#D3D6F2"/>
<path d="M7.84645 10.3536C8.04171 10.1583 8.04171 9.84171 7.84645 9.64645L7.35355 9.15355C7.15829 8.95829 7.15829 8.64171 7.35355 8.44645L7.44645 8.35355C7.64171 8.15829 7.95829 8.15829 8.15355 8.35355L8.64645 8.84645C8.84171 9.04171 9.15829 9.04171 9.35355 8.84645L9.84645 8.35355C10.0417 8.15829 10.3583 8.15829 10.5536 8.35355L10.6464 8.44645C10.8417 8.64171 10.8417 8.95829 10.6464 9.15355L10.1536 9.64645C9.95829 9.84171 9.95829 10.1583 10.1536 10.3536L10.6464 10.8464C10.8417 11.0417 10.8417 11.3583 10.6464 11.5536L10.5536 11.6464C10.3583 11.8417 10.0417 11.8417 9.84645 11.6464L9.35355 11.1536C9.15829 10.9583 8.84171 10.9583 8.64645 11.1536L8.15355 11.6464C7.95829 11.8417 7.64171 11.8417 7.44645 11.6464L7.35355 11.5536C7.15829 11.3583 7.15829 11.0417 7.35355 10.8464L7.84645 10.3536ZM13.8464 10.3536C14.0417 10.1583 14.0417 9.84171 13.8464 9.64645L13.3536 9.15355C13.1583 8.95829 13.1583 8.64171 13.3536 8.44645L13.4464 8.35355C13.6417 8.15829 13.9583 8.15829 14.1536 8.35355L14.6464 8.84645C14.8417 9.04171 15.1583 9.04171 15.3536 8.84645L15.8464 8.35355C16.0417 8.15829 16.3583 8.15829 16.5536 8.35355L16.6464 8.44645C16.8417 8.64171 16.8417 8.95829 16.6464 9.15355L16.1536 9.64645C15.9583 9.84171 15.9583 10.1583 16.1536 10.3536L16.6464 10.8464C16.8417 11.0417 16.8417 11.3583 16.6464 11.5536L16.5536 11.6464C16.3583 11.8417 16.0417 11.8417 15.8464 11.6464L15.3536 11.1536C15.1583 10.9583 14.8417 10.9583 14.6464 11.1536L14.1536 11.6464C13.9583 11.8417 13.6417 11.8417 13.4464 11.6464L13.3536 11.5536C13.1583 11.3583 13.1583 11.0417 13.3536 10.8464L13.8464 10.3536ZM12 17C12.5304 17 13.0391 16.7893 13.4142 16.4142C13.7893 16.0391 14 15.5304 14 15C14 14.4696 13.7893 13.9609 13.4142 13.5858C13.0391 13.2107 12.5304 13 12 13C11.4696 13 10.9609 13.2107 10.5858 13.5858C10.2107 13.9609 10 14.4696 10 15C10 15.5304 10.2107 16.0391 10.5858 16.4142C10.9609 16.7893 11.4696 17 12 17Z" fill="#8882D2"/>
<path d="M12 21C16.9706 21 21 16.9706 21 12C21 7.02944 16.9706 3 12 3C7.02944 3 3 7.02944 3 12C3 16.9706 7.02944 21 12 21Z" stroke="#8882D2" stroke-width="1.5" stroke-linecap="round" stroke-linejoin="round"/>
</g>
<defs>
<clipPath id="clip0_4685_3341">
<rect width="24" height="24" fill="white"/>
</clipPath>
</defs>
</svg>
