<svg width="226" height="226" viewBox="0 0 226 226" fill="none" xmlns="http://www.w3.org/2000/svg">
<g clip-path="url(#clip0_5053_66836)">
<g filter="url(#filter0_f_5053_66836)">
<mask id="path-1-outside-1_5053_66836" maskUnits="userSpaceOnUse" x="-4.00269" y="-8" width="130" height="238" fill="black">
<rect fill="white" x="-4.00269" y="-8" width="130" height="238"/>
<path d="M100.882 0C102.703 1.87912 104.221 3.6526 105.684 5.46062C112.529 13.9177 118.06 22.9537 120.94 33.1212C123.903 43.5752 123.416 53.7631 117.895 63.5751C114.737 69.1861 109.944 73.4501 104.292 77.0662C98.4603 80.796 92.1885 83.9224 86.2172 87.4592C82.1744 89.8543 78.2898 92.4282 75.0749 95.7009C69.154 101.73 68.0304 108.601 70.4496 116.132C72.3781 122.13 76.0105 127.234 80.6953 131.802C85.621 136.605 91.2667 140.704 96.8734 144.842C101.985 148.615 107.053 152.434 111.355 156.958C115.537 161.358 118.592 166.242 119.477 172.052C120.328 177.649 119.176 182.973 116.739 188.111C113.953 193.982 109.133 198.354 103.37 201.986C97.2105 205.868 90.4045 208.743 83.6994 211.772C73.3871 216.434 62.9969 220.958 52.5953 225.46C51.7468 225.827 50.9052 226.006 49.9582 226C45.1426 225.97 40.327 225.98 35.5114 225.961C35.1537 225.961 34.6561 226.126 34.4749 225.752C34.296 225.38 34.7707 225.171 35.0115 224.933C40.6205 219.426 46.1194 213.84 50.6346 207.56C52.4233 205.072 53.9941 202.48 55.3768 199.798C55.4846 199.591 55.5603 199.371 55.7735 198.868C54.7348 199.546 53.9643 200.062 53.1823 200.56C47.4128 204.221 41.1915 207.054 34.0186 207.544C22.264 208.346 11.9036 205.624 4.46463 196.995C-1.68327 189.866 -0.86691 180.542 6.12945 174.073C9.67464 170.797 13.8 168.389 18.9022 167.497C23.3004 166.728 27.4441 167.491 31.5145 169.173C31.1223 169.494 30.8563 169.265 30.6133 169.188C18.228 165.253 8.32398 172.901 5.09295 179.999C2.49253 185.714 4.70541 192.45 10.4107 196.635C14.4604 199.607 19.1728 201.094 24.3163 201.687C33.232 202.713 40.7512 199.958 47.4403 194.983C48.7841 193.984 50.0591 192.913 51.2859 191.772C50.4237 192.265 49.5798 192.783 48.6992 193.246C44.0671 195.68 39.1139 197.309 33.7159 197.657C24.2246 198.27 17.6204 192.245 16.6251 185.994C16.139 182.939 17.1136 180.182 19.5191 177.951C22.3947 175.284 25.8573 173.519 30.0927 173.127C34.2227 172.745 37.5959 175.688 37.19 179.386C36.8208 179.152 36.9331 178.792 36.8598 178.516C35.8324 174.648 33.349 173.129 28.9783 174C25.0753 174.778 21.8627 176.686 19.6406 179.652C17.0081 183.164 17.7763 187.837 21.3008 191.343C25.4606 195.481 30.666 196.271 36.4585 195.063C42.3151 193.842 47.3921 191.315 51.8041 187.699C54.2509 185.691 56.4179 183.475 58.4932 181.165C60.2383 179.225 61.3459 177.196 61.2404 174.622C61.0363 169.551 61.1326 164.462 59.4082 159.54C56.8169 152.154 51.5932 146.829 43.5076 143.849C40.2375 142.644 36.7038 142.354 33.1999 142.063C27.2378 141.57 21.2137 141.568 15.3295 140.424C10.8762 139.559 6.78758 138.076 3.76752 134.868C1.75873 132.735 0.543369 130.271 0.0847419 127.538C-0.261522 125.468 0.447057 123.583 1.74497 121.868C2.68057 120.631 3.69872 119.443 4.59993 118.187C5.96434 116.288 6.212 114.267 5.15945 112.182C4.51967 110.917 3.7744 109.692 3.15066 108.42C1.68764 105.442 2.56133 103.849 6.10422 102.945C7.59476 102.565 7.58559 102.571 6.57432 101.521C5.65706 100.568 4.75127 99.6034 4.13901 98.4577C3.29513 96.8812 3.55884 95.5709 5.05397 94.4455C5.98269 93.7446 7.0146 93.1535 7.98918 92.4993C11.782 89.9559 12.3737 86.667 9.67464 83.1891C8.4157 81.5659 6.8472 80.1683 5.4438 78.6507C4.59534 77.7325 3.76981 76.8021 3.20799 75.7132C2.26093 73.8808 2.61636 72.3836 4.3752 71.0936C5.95058 69.9398 7.80344 69.1962 9.63336 68.4263C14.7035 66.2912 19.9456 64.4588 24.7061 61.7813C27.6666 60.1155 30.3152 58.1653 32.0442 55.3619C33.0646 53.7062 32.8743 52.2049 31.7736 50.6874C30.3381 48.7088 28.4531 47.0653 26.7287 45.302C24.5708 43.0958 22.4887 40.8449 21.3123 38.0638C21.1931 37.7794 21.0853 37.4889 20.9958 37.1964C20.9706 37.1131 21.0211 37.0095 21.083 36.6438C22.9679 40.4427 25.7381 43.3599 29.0906 45.8992C27.3134 43.1567 25.9765 40.2781 25.3069 37.0481C25.8848 37.3264 25.8756 37.7408 26.0018 38.0659C27.5221 42.0008 30.2601 45.2248 33.482 48.1704C34.2571 48.8794 34.3396 48.3512 34.4864 47.7865C36.1443 41.3914 38.52 35.2279 42.0308 29.428C49.1326 17.6962 59.7109 9.45247 73.7013 4.62365C80.4752 2.28541 87.522 0.97511 94.7133 0.203148C95.548 0.113763 96.0571 0.335194 96.4377 1.02793C98.6024 4.98931 100.996 8.86944 102.742 12.9832C104.638 17.4545 105.065 22.1472 103.982 26.8663C103.432 29.2655 101.746 31.1507 99.9462 32.9201C97.5843 35.2441 94.7385 36.9932 91.4547 38.1512C88.5058 39.1913 85.4719 39.4026 82.3854 38.8155C88.2742 40.5178 93.4704 38.9292 98.2608 35.9511C103.024 32.9892 106.505 29.2045 106.968 23.8394C107.431 23.7419 107.465 23.9816 107.527 24.1624C109.123 28.912 110.371 33.7226 110.403 38.7098C110.469 48.5869 105.97 56.5929 97.6003 62.988C90.8815 68.1216 83.603 72.6274 76.7466 77.6045C71.7131 81.2571 66.9044 85.1149 62.8777 89.6776C57.6608 95.5892 54.4321 102.177 53.962 109.753C53.5194 116.897 54.8448 123.652 59.3944 129.71C63.772 135.536 69.193 140.351 76.5173 143.193C76.5264 142.941 76.1618 142.935 75.9577 142.801C75.7147 142.64 75.4372 142.52 75.1689 142.39C66.8288 138.35 60.9996 132.288 57.2733 124.631C55.1292 120.229 54.7508 115.53 55.0145 110.789C55.6153 99.9853 61.8458 91.7924 70.4634 84.7147C77.1249 79.2439 84.6189 74.7198 91.856 69.8991C95.0917 67.7437 98.3594 65.6188 101.334 63.1729C109.976 56.0648 114.017 47.2888 113.611 36.8531C113.361 30.4194 111.625 24.2762 109.275 18.2386C107.066 12.5667 104.301 7.10002 101.444 1.66784C101.21 1.22295 100.854 0.806497 100.882 0Z"/>
</mask>
<path d="M100.882 0C102.703 1.87912 104.221 3.6526 105.684 5.46062C112.529 13.9177 118.06 22.9537 120.94 33.1212C123.903 43.5752 123.416 53.7631 117.895 63.5751C114.737 69.1861 109.944 73.4501 104.292 77.0662C98.4603 80.796 92.1885 83.9224 86.2172 87.4592C82.1744 89.8543 78.2898 92.4282 75.0749 95.7009C69.154 101.73 68.0304 108.601 70.4496 116.132C72.3781 122.13 76.0105 127.234 80.6953 131.802C85.621 136.605 91.2667 140.704 96.8734 144.842C101.985 148.615 107.053 152.434 111.355 156.958C115.537 161.358 118.592 166.242 119.477 172.052C120.328 177.649 119.176 182.973 116.739 188.111C113.953 193.982 109.133 198.354 103.37 201.986C97.2105 205.868 90.4045 208.743 83.6994 211.772C73.3871 216.434 62.9969 220.958 52.5953 225.46C51.7468 225.827 50.9052 226.006 49.9582 226C45.1426 225.97 40.327 225.98 35.5114 225.961C35.1537 225.961 34.6561 226.126 34.4749 225.752C34.296 225.38 34.7707 225.171 35.0115 224.933C40.6205 219.426 46.1194 213.84 50.6346 207.56C52.4233 205.072 53.9941 202.48 55.3768 199.798C55.4846 199.591 55.5603 199.371 55.7735 198.868C54.7348 199.546 53.9643 200.062 53.1823 200.56C47.4128 204.221 41.1915 207.054 34.0186 207.544C22.264 208.346 11.9036 205.624 4.46463 196.995C-1.68327 189.866 -0.86691 180.542 6.12945 174.073C9.67464 170.797 13.8 168.389 18.9022 167.497C23.3004 166.728 27.4441 167.491 31.5145 169.173C31.1223 169.494 30.8563 169.265 30.6133 169.188C18.228 165.253 8.32398 172.901 5.09295 179.999C2.49253 185.714 4.70541 192.45 10.4107 196.635C14.4604 199.607 19.1728 201.094 24.3163 201.687C33.232 202.713 40.7512 199.958 47.4403 194.983C48.7841 193.984 50.0591 192.913 51.2859 191.772C50.4237 192.265 49.5798 192.783 48.6992 193.246C44.0671 195.68 39.1139 197.309 33.7159 197.657C24.2246 198.27 17.6204 192.245 16.6251 185.994C16.139 182.939 17.1136 180.182 19.5191 177.951C22.3947 175.284 25.8573 173.519 30.0927 173.127C34.2227 172.745 37.5959 175.688 37.19 179.386C36.8208 179.152 36.9331 178.792 36.8598 178.516C35.8324 174.648 33.349 173.129 28.9783 174C25.0753 174.778 21.8627 176.686 19.6406 179.652C17.0081 183.164 17.7763 187.837 21.3008 191.343C25.4606 195.481 30.666 196.271 36.4585 195.063C42.3151 193.842 47.3921 191.315 51.8041 187.699C54.2509 185.691 56.4179 183.475 58.4932 181.165C60.2383 179.225 61.3459 177.196 61.2404 174.622C61.0363 169.551 61.1326 164.462 59.4082 159.54C56.8169 152.154 51.5932 146.829 43.5076 143.849C40.2375 142.644 36.7038 142.354 33.1999 142.063C27.2378 141.57 21.2137 141.568 15.3295 140.424C10.8762 139.559 6.78758 138.076 3.76752 134.868C1.75873 132.735 0.543369 130.271 0.0847419 127.538C-0.261522 125.468 0.447057 123.583 1.74497 121.868C2.68057 120.631 3.69872 119.443 4.59993 118.187C5.96434 116.288 6.212 114.267 5.15945 112.182C4.51967 110.917 3.7744 109.692 3.15066 108.42C1.68764 105.442 2.56133 103.849 6.10422 102.945C7.59476 102.565 7.58559 102.571 6.57432 101.521C5.65706 100.568 4.75127 99.6034 4.13901 98.4577C3.29513 96.8812 3.55884 95.5709 5.05397 94.4455C5.98269 93.7446 7.0146 93.1535 7.98918 92.4993C11.782 89.9559 12.3737 86.667 9.67464 83.1891C8.4157 81.5659 6.8472 80.1683 5.4438 78.6507C4.59534 77.7325 3.76981 76.8021 3.20799 75.7132C2.26093 73.8808 2.61636 72.3836 4.3752 71.0936C5.95058 69.9398 7.80344 69.1962 9.63336 68.4263C14.7035 66.2912 19.9456 64.4588 24.7061 61.7813C27.6666 60.1155 30.3152 58.1653 32.0442 55.3619C33.0646 53.7062 32.8743 52.2049 31.7736 50.6874C30.3381 48.7088 28.4531 47.0653 26.7287 45.302C24.5708 43.0958 22.4887 40.8449 21.3123 38.0638C21.1931 37.7794 21.0853 37.4889 20.9958 37.1964C20.9706 37.1131 21.0211 37.0095 21.083 36.6438C22.9679 40.4427 25.7381 43.3599 29.0906 45.8992C27.3134 43.1567 25.9765 40.2781 25.3069 37.0481C25.8848 37.3264 25.8756 37.7408 26.0018 38.0659C27.5221 42.0008 30.2601 45.2248 33.482 48.1704C34.2571 48.8794 34.3396 48.3512 34.4864 47.7865C36.1443 41.3914 38.52 35.2279 42.0308 29.428C49.1326 17.6962 59.7109 9.45247 73.7013 4.62365C80.4752 2.28541 87.522 0.97511 94.7133 0.203148C95.548 0.113763 96.0571 0.335194 96.4377 1.02793C98.6024 4.98931 100.996 8.86944 102.742 12.9832C104.638 17.4545 105.065 22.1472 103.982 26.8663C103.432 29.2655 101.746 31.1507 99.9462 32.9201C97.5843 35.2441 94.7385 36.9932 91.4547 38.1512C88.5058 39.1913 85.4719 39.4026 82.3854 38.8155C88.2742 40.5178 93.4704 38.9292 98.2608 35.9511C103.024 32.9892 106.505 29.2045 106.968 23.8394C107.431 23.7419 107.465 23.9816 107.527 24.1624C109.123 28.912 110.371 33.7226 110.403 38.7098C110.469 48.5869 105.97 56.5929 97.6003 62.988C90.8815 68.1216 83.603 72.6274 76.7466 77.6045C71.7131 81.2571 66.9044 85.1149 62.8777 89.6776C57.6608 95.5892 54.4321 102.177 53.962 109.753C53.5194 116.897 54.8448 123.652 59.3944 129.71C63.772 135.536 69.193 140.351 76.5173 143.193C76.5264 142.941 76.1618 142.935 75.9577 142.801C75.7147 142.64 75.4372 142.52 75.1689 142.39C66.8288 138.35 60.9996 132.288 57.2733 124.631C55.1292 120.229 54.7508 115.53 55.0145 110.789C55.6153 99.9853 61.8458 91.7924 70.4634 84.7147C77.1249 79.2439 84.6189 74.7198 91.856 69.8991C95.0917 67.7437 98.3594 65.6188 101.334 63.1729C109.976 56.0648 114.017 47.2888 113.611 36.8531C113.361 30.4194 111.625 24.2762 109.275 18.2386C107.066 12.5667 104.301 7.10002 101.444 1.66784C101.21 1.22295 100.854 0.806497 100.882 0Z" fill="#FBD0DA"/>
<path d="M100.882 0C102.703 1.87912 104.221 3.6526 105.684 5.46062C112.529 13.9177 118.06 22.9537 120.94 33.1212C123.903 43.5752 123.416 53.7631 117.895 63.5751C114.737 69.1861 109.944 73.4501 104.292 77.0662C98.4603 80.796 92.1885 83.9224 86.2172 87.4592C82.1744 89.8543 78.2898 92.4282 75.0749 95.7009C69.154 101.73 68.0304 108.601 70.4496 116.132C72.3781 122.13 76.0105 127.234 80.6953 131.802C85.621 136.605 91.2667 140.704 96.8734 144.842C101.985 148.615 107.053 152.434 111.355 156.958C115.537 161.358 118.592 166.242 119.477 172.052C120.328 177.649 119.176 182.973 116.739 188.111C113.953 193.982 109.133 198.354 103.37 201.986C97.2105 205.868 90.4045 208.743 83.6994 211.772C73.3871 216.434 62.9969 220.958 52.5953 225.46C51.7468 225.827 50.9052 226.006 49.9582 226C45.1426 225.97 40.327 225.98 35.5114 225.961C35.1537 225.961 34.6561 226.126 34.4749 225.752C34.296 225.38 34.7707 225.171 35.0115 224.933C40.6205 219.426 46.1194 213.84 50.6346 207.56C52.4233 205.072 53.9941 202.48 55.3768 199.798C55.4846 199.591 55.5603 199.371 55.7735 198.868C54.7348 199.546 53.9643 200.062 53.1823 200.56C47.4128 204.221 41.1915 207.054 34.0186 207.544C22.264 208.346 11.9036 205.624 4.46463 196.995C-1.68327 189.866 -0.86691 180.542 6.12945 174.073C9.67464 170.797 13.8 168.389 18.9022 167.497C23.3004 166.728 27.4441 167.491 31.5145 169.173C31.1223 169.494 30.8563 169.265 30.6133 169.188C18.228 165.253 8.32398 172.901 5.09295 179.999C2.49253 185.714 4.70541 192.45 10.4107 196.635C14.4604 199.607 19.1728 201.094 24.3163 201.687C33.232 202.713 40.7512 199.958 47.4403 194.983C48.7841 193.984 50.0591 192.913 51.2859 191.772C50.4237 192.265 49.5798 192.783 48.6992 193.246C44.0671 195.68 39.1139 197.309 33.7159 197.657C24.2246 198.27 17.6204 192.245 16.6251 185.994C16.139 182.939 17.1136 180.182 19.5191 177.951C22.3947 175.284 25.8573 173.519 30.0927 173.127C34.2227 172.745 37.5959 175.688 37.19 179.386C36.8208 179.152 36.9331 178.792 36.8598 178.516C35.8324 174.648 33.349 173.129 28.9783 174C25.0753 174.778 21.8627 176.686 19.6406 179.652C17.0081 183.164 17.7763 187.837 21.3008 191.343C25.4606 195.481 30.666 196.271 36.4585 195.063C42.3151 193.842 47.3921 191.315 51.8041 187.699C54.2509 185.691 56.4179 183.475 58.4932 181.165C60.2383 179.225 61.3459 177.196 61.2404 174.622C61.0363 169.551 61.1326 164.462 59.4082 159.54C56.8169 152.154 51.5932 146.829 43.5076 143.849C40.2375 142.644 36.7038 142.354 33.1999 142.063C27.2378 141.57 21.2137 141.568 15.3295 140.424C10.8762 139.559 6.78758 138.076 3.76752 134.868C1.75873 132.735 0.543369 130.271 0.0847419 127.538C-0.261522 125.468 0.447057 123.583 1.74497 121.868C2.68057 120.631 3.69872 119.443 4.59993 118.187C5.96434 116.288 6.212 114.267 5.15945 112.182C4.51967 110.917 3.7744 109.692 3.15066 108.42C1.68764 105.442 2.56133 103.849 6.10422 102.945C7.59476 102.565 7.58559 102.571 6.57432 101.521C5.65706 100.568 4.75127 99.6034 4.13901 98.4577C3.29513 96.8812 3.55884 95.5709 5.05397 94.4455C5.98269 93.7446 7.0146 93.1535 7.98918 92.4993C11.782 89.9559 12.3737 86.667 9.67464 83.1891C8.4157 81.5659 6.8472 80.1683 5.4438 78.6507C4.59534 77.7325 3.76981 76.8021 3.20799 75.7132C2.26093 73.8808 2.61636 72.3836 4.3752 71.0936C5.95058 69.9398 7.80344 69.1962 9.63336 68.4263C14.7035 66.2912 19.9456 64.4588 24.7061 61.7813C27.6666 60.1155 30.3152 58.1653 32.0442 55.3619C33.0646 53.7062 32.8743 52.2049 31.7736 50.6874C30.3381 48.7088 28.4531 47.0653 26.7287 45.302C24.5708 43.0958 22.4887 40.8449 21.3123 38.0638C21.1931 37.7794 21.0853 37.4889 20.9958 37.1964C20.9706 37.1131 21.0211 37.0095 21.083 36.6438C22.9679 40.4427 25.7381 43.3599 29.0906 45.8992C27.3134 43.1567 25.9765 40.2781 25.3069 37.0481C25.8848 37.3264 25.8756 37.7408 26.0018 38.0659C27.5221 42.0008 30.2601 45.2248 33.482 48.1704C34.2571 48.8794 34.3396 48.3512 34.4864 47.7865C36.1443 41.3914 38.52 35.2279 42.0308 29.428C49.1326 17.6962 59.7109 9.45247 73.7013 4.62365C80.4752 2.28541 87.522 0.97511 94.7133 0.203148C95.548 0.113763 96.0571 0.335194 96.4377 1.02793C98.6024 4.98931 100.996 8.86944 102.742 12.9832C104.638 17.4545 105.065 22.1472 103.982 26.8663C103.432 29.2655 101.746 31.1507 99.9462 32.9201C97.5843 35.2441 94.7385 36.9932 91.4547 38.1512C88.5058 39.1913 85.4719 39.4026 82.3854 38.8155C88.2742 40.5178 93.4704 38.9292 98.2608 35.9511C103.024 32.9892 106.505 29.2045 106.968 23.8394C107.431 23.7419 107.465 23.9816 107.527 24.1624C109.123 28.912 110.371 33.7226 110.403 38.7098C110.469 48.5869 105.97 56.5929 97.6003 62.988C90.8815 68.1216 83.603 72.6274 76.7466 77.6045C71.7131 81.2571 66.9044 85.1149 62.8777 89.6776C57.6608 95.5892 54.4321 102.177 53.962 109.753C53.5194 116.897 54.8448 123.652 59.3944 129.71C63.772 135.536 69.193 140.351 76.5173 143.193C76.5264 142.941 76.1618 142.935 75.9577 142.801C75.7147 142.64 75.4372 142.52 75.1689 142.39C66.8288 138.35 60.9996 132.288 57.2733 124.631C55.1292 120.229 54.7508 115.53 55.0145 110.789C55.6153 99.9853 61.8458 91.7924 70.4634 84.7147C77.1249 79.2439 84.6189 74.7198 91.856 69.8991C95.0917 67.7437 98.3594 65.6188 101.334 63.1729C109.976 56.0648 114.017 47.2888 113.611 36.8531C113.361 30.4194 111.625 24.2762 109.275 18.2386C107.066 12.5667 104.301 7.10002 101.444 1.66784C101.21 1.22295 100.854 0.806497 100.882 0Z" stroke="white" stroke-width="6" mask="url(#path-1-outside-1_5053_66836)"/>
</g>
<g clip-path="url(#clip1_5053_66836)">
<path d="M190.064 102.731C189.361 100.751 188.777 99.0947 188.184 97.4381C187.656 95.9593 186.888 95.6224 185.793 96.8718C185.745 96.928 185.689 96.9842 185.636 97.0356C183.656 98.9699 182.289 98.5737 181.536 95.847C181.182 94.5788 180.82 93.3106 180.45 92.047C180.293 91.5135 180.066 90.966 179.446 90.9941C178.823 91.0222 178.67 91.5978 178.535 92.1406C177.968 94.3963 177.309 96.6332 176.851 98.9169C176.476 100.779 175.76 101.865 173.784 101.617C173.012 101.519 171.725 101.271 171.756 102.642C171.786 103.971 173.038 103.606 173.845 103.629C177.339 103.737 177.318 103.714 178.29 100.124C178.631 98.8748 178.722 97.5223 179.538 96.2728C180.65 97.7236 180.685 99.4972 181.226 101.051C181.915 103.026 182.373 103.18 183.804 101.823C186.845 98.945 186.783 98.9684 188.297 103.002C188.781 104.289 188.698 106.512 190.243 106.526C191.534 106.54 191.564 104.364 192.201 103.189C192.236 103.124 192.249 103.04 192.284 102.974C192.934 101.786 193.034 99.7124 194.182 99.5393C195.407 99.3521 195.586 101.416 196.184 102.497C197.017 104.008 198.304 103.526 199.482 103.648C200.031 103.704 200.769 103.377 201.069 104.046C201.384 104.743 200.677 105.146 200.315 105.581C195.442 111.473 190.535 117.327 185.684 123.237C184.829 124.276 184.28 124.239 183.446 123.233C176.646 115.01 169.693 106.924 163.023 98.5799C158.87 93.3854 159.088 85.7949 163.071 80.4179C167.289 74.7227 174.792 74.5074 179.459 79.964C180.833 81.5738 182.186 83.207 183.494 84.8777C184.24 85.8324 184.86 85.823 185.61 84.9011C186.945 83.2538 188.284 81.6066 189.689 80.0295C195.028 74.0441 202.723 74.8116 206.937 81.7189C210.535 87.62 209.288 96.446 204.228 100.84C202.208 102.595 197.811 101.617 196.52 99.2491C195.817 97.9622 195.687 95.6645 194.125 95.7066C192.546 95.7487 192.699 98.1354 191.922 99.3802C191.329 100.33 191.198 101.566 190.064 102.722V102.731Z" fill="white"/>
</g>
<path d="M159.969 153.816C159.969 159.032 159.979 164.252 159.954 169.468C159.954 170.133 160.187 170.575 160.759 171.008C167.64 176.259 166.38 186.559 158.404 190.427C149.32 194.834 138.474 189.508 138.014 180.333C137.827 176.618 139.472 173.45 142.613 170.947C143.112 170.549 143.369 170.168 143.359 169.56C143.304 166.239 143.215 162.918 143.28 159.601C143.418 152.381 143.27 145.157 143.364 137.937C143.403 135.098 145.749 132.389 148.915 131.396C152.022 130.42 155.766 131.3 157.865 133.47C159.297 134.949 159.994 136.638 159.984 138.594C159.959 143.669 159.974 148.741 159.974 153.816H159.969ZM156.018 154.805C156.018 152.801 156.018 150.793 156.018 148.789C156.018 145.293 156.043 141.797 156.003 138.301C155.978 136.113 154.185 134.546 151.785 134.516C149.073 134.481 147.3 136.025 147.3 138.484C147.29 149.143 147.275 159.802 147.325 170.461C147.325 171.625 147.009 172.373 145.878 173.082C142.178 175.393 140.938 179.746 142.756 183.444C144.534 187.058 149.044 189.18 153.44 188.384C157.593 187.631 160.172 185.356 161.135 181.711C162.014 178.39 160.443 174.881 157.193 172.92C156.299 172.382 155.998 171.809 156.003 170.881C156.047 165.526 156.023 160.166 156.023 154.81L156.018 154.805Z" fill="white"/>
<path d="M169.397 157.903C167.98 157.903 166.557 157.916 165.14 157.899C164.483 157.89 163.959 157.636 163.683 157.072C163.45 156.595 163.579 156.179 163.93 155.794C164.241 155.453 164.69 155.344 165.145 155.344C167.985 155.33 170.825 155.309 173.66 155.344C174.653 155.357 175.275 155.956 175.235 156.661C175.196 157.374 174.554 157.881 173.561 157.899C172.173 157.925 170.785 157.908 169.397 157.908C169.397 157.908 169.397 157.908 169.397 157.903Z" fill="white"/>
<path d="M169.348 167.897C168.025 167.897 166.701 167.914 165.382 167.897C164.251 167.879 163.56 167.372 163.565 166.61C163.57 165.84 164.261 165.307 165.362 165.298C168.04 165.28 170.717 165.28 173.394 165.298C174.51 165.307 175.201 165.836 175.226 166.597C175.251 167.346 174.554 167.866 173.413 167.888C172.06 167.914 170.702 167.893 169.348 167.897Z" fill="white"/>
<path d="M169.433 135.333C170.762 135.333 172.086 135.32 173.414 135.333C174.506 135.347 175.187 135.815 175.232 136.537C175.276 137.285 174.585 137.889 173.469 137.902C170.718 137.941 167.966 137.937 165.22 137.902C164.168 137.889 163.531 137.298 163.57 136.55C163.61 135.815 164.282 135.342 165.358 135.333C166.717 135.32 168.075 135.333 169.433 135.333Z" fill="white"/>
<path d="M169.408 145.31C170.737 145.31 172.061 145.297 173.389 145.31C174.52 145.323 175.237 145.831 175.232 146.584C175.232 147.306 174.57 147.866 173.503 147.883C170.752 147.923 168.006 147.918 165.255 147.883C164.178 147.87 163.55 147.314 163.575 146.566C163.595 145.831 164.272 145.332 165.338 145.315C166.697 145.293 168.055 145.31 169.413 145.31H169.408Z" fill="white"/>
<path d="M167.412 152.914C166.666 152.914 165.926 152.941 165.18 152.906C164.207 152.862 163.57 152.319 163.565 151.602C163.56 150.893 164.202 150.342 165.19 150.32C166.676 150.285 168.163 150.285 169.65 150.32C170.642 150.346 171.265 150.889 171.26 151.615C171.26 152.341 170.638 152.853 169.64 152.901C168.899 152.936 168.153 152.91 167.407 152.91L167.412 152.914Z" fill="white"/>
<path d="M167.388 162.883C166.612 162.883 165.837 162.918 165.066 162.875C164.143 162.822 163.55 162.279 163.565 161.588C163.58 160.901 164.197 160.345 165.106 160.328C166.652 160.297 168.203 160.297 169.749 160.35C170.717 160.38 171.26 160.91 171.231 161.623C171.196 162.349 170.623 162.848 169.709 162.888C168.939 162.918 168.163 162.892 167.388 162.892C167.388 162.892 167.388 162.888 167.388 162.883Z" fill="white"/>
<path d="M167.393 142.821C166.588 142.821 165.778 142.83 164.972 142.821C164.118 142.808 163.629 142.384 163.585 141.662C163.54 140.931 164.039 140.406 164.834 140.375C166.573 140.31 168.321 140.31 170.06 140.384C170.875 140.419 171.305 140.975 171.245 141.71C171.191 142.414 170.692 142.791 169.907 142.817C169.067 142.843 168.227 142.821 167.388 142.821H167.393Z" fill="white"/>
<path d="M154.101 161.802C154.101 165.298 154.116 168.794 154.086 172.29C154.081 172.977 154.308 173.349 155.054 173.655C159.85 175.651 160.877 180.381 158.907 183.597C156.546 187.452 151.345 188.69 147.255 186.358C144.672 184.883 143.294 182.695 143.432 179.978C143.58 177.099 145.21 174.92 148.193 173.673C148.969 173.349 149.206 172.977 149.201 172.251C149.171 165.285 149.181 158.323 149.186 151.357C149.186 150.167 149.211 150.149 150.53 150.141C151.305 150.141 152.086 150.176 152.856 150.132C153.78 150.079 154.116 150.403 154.106 151.226C154.066 153.978 154.091 156.73 154.086 159.478C154.086 160.253 154.086 161.027 154.086 161.802H154.101Z" fill="white"/>
<path d="M122.506 82.6126C128.398 82.6126 131.897 86.864 130.086 91.693C128.806 95.1132 127.511 98.525 126.16 101.924C125.865 102.672 126.005 103.055 126.793 103.437C129.491 104.734 132.169 106.068 134.82 107.439C137.236 108.686 137.775 111.188 136.067 113.17C133.286 116.395 130.48 119.603 127.666 122.807C126.198 124.474 123.777 124.794 121.929 123.609C120.212 122.508 119.808 120.247 121.094 118.572C122.482 116.761 123.885 114.953 125.386 113.216C126.104 112.389 125.935 112.056 124.936 111.632C122.098 110.427 119.297 109.143 116.487 107.88C112.903 106.267 111.44 103.346 112.5 99.9338C113.208 97.6523 113.935 95.375 114.644 93.0934C114.723 92.8316 114.869 92.4493 114.733 92.2955C114.47 91.9922 114.076 92.2956 113.752 92.3745C113.025 92.5574 112.326 92.894 111.59 92.9812C109.704 93.2098 108.958 94.228 108.611 95.7781C108.198 97.6108 107.612 99.4144 107.011 101.21C106.2 103.641 103.488 104.435 101.41 102.905C100.331 102.111 100.097 101.043 100.364 99.9255C101.138 96.6799 101.978 93.4425 102.822 90.2094C103.071 89.2494 103.798 88.572 104.802 88.2063C109.521 86.4899 114.25 84.7819 118.992 83.1238C120.141 82.7207 121.38 82.5586 122.501 82.6126H122.506Z" fill="white"/>
<path d="M97.0048 127.299C97.0611 126.451 97.4176 125.612 98.1729 124.918C101.602 121.768 105.008 118.605 108.465 115.484C109.15 114.865 109.525 114.212 109.652 113.373C110.004 111.104 110.412 108.839 110.801 106.574C110.834 106.375 110.801 106.121 111.059 106.026C111.289 105.938 111.434 106.121 111.528 106.267C112.987 108.536 115.548 109.525 118.025 110.555C119.043 110.979 119.24 111.441 118.987 112.351C118.593 113.751 118.283 115.177 118.068 116.61C117.786 118.46 116.365 119.578 114.971 120.745C111.327 123.796 107.677 126.85 104.041 129.909C102.803 130.952 101.02 131.293 99.5098 130.732C98.0228 130.179 96.9861 128.808 97.0001 127.303L97.0048 127.299Z" fill="white"/>
<path d="M132.051 86.1489C132.524 86.0284 132.717 86.311 132.947 86.4731C134.438 87.5328 135.93 88.5967 137.394 89.6855C138.566 90.5582 138.59 90.5707 139.523 89.5359C140.893 88.019 142.254 86.4939 143.642 84.9936C144.716 83.8342 146.288 83.4851 147.719 84.0295C149.135 84.5698 149.9 85.7708 149.759 87.2045C149.703 87.7572 149.436 88.2227 149.074 88.6507C146.677 91.4725 144.304 94.3109 141.864 97.1077C140.691 98.4542 138.548 98.6869 136.91 97.6646C135.25 96.6256 133.66 95.5036 132.027 94.4231C131.647 94.1737 131.384 93.9161 131.544 93.4506C131.957 92.2371 132.51 91.0569 132.623 89.7686C132.735 88.526 132.323 87.3458 132.046 86.1531L132.051 86.1489Z" fill="white"/>
<path d="M138.245 76.3751C138.212 79.895 134.881 82.7791 130.932 82.7168C127.094 82.6544 123.872 79.7121 123.932 76.3293C123.998 72.772 127.113 70.025 131.105 70.0001C134.952 69.9793 138.273 72.9465 138.245 76.3751Z" fill="white"/>
</g>
<defs>
<filter id="filter0_f_5053_66836" x="-6.00366" y="-10.1572" width="134.742" height="242.157" filterUnits="userSpaceOnUse" color-interpolation-filters="sRGB">
<feFlood flood-opacity="0" result="BackgroundImageFix"/>
<feBlend mode="normal" in="SourceGraphic" in2="BackgroundImageFix" result="shape"/>
<feGaussianBlur stdDeviation="1.5" result="effect1_foregroundBlur_5053_66836"/>
</filter>
<clipPath id="clip0_5053_66836">
<rect width="226" height="226" fill="white"/>
</clipPath>
<clipPath id="clip1_5053_66836">
<rect width="49" height="48" fill="white" transform="translate(160 76)"/>
</clipPath>
</defs>
</svg>
